<svg id="Layer_1" data-name="Layer 1" xmlns="http://www.w3.org/2000/svg" viewBox="0 0 509.9 154.9"><defs><style>.cls-1{fill:#28348a;}.cls-2,.cls-4{fill:#ffffff00;}.cls-2{stroke:#575756;stroke-miterlimit:10;}.cls-3{fill:#dd1d4f;}.cls-5{fill:#d9d9d9;}.cls-5,.cls-6,.cls-7{fill-rule:evenodd;}.cls-6{fill:#e20613;}.cls-7{fill:#1d1d1b;}</style></defs><title>logo_af-de-fionie_rgb</title><path class="cls-1" d="M209.28,61.22H197l-2.16,5A7.94,7.94,0,0,0,194,69a1.61,1.61,0,0,0,.69,1.28,6,6,0,0,0,3,.71v.87h-10V71a5.39,5.39,0,0,0,2.58-.91,14.36,14.36,0,0,0,2.65-4.57L204.1,39.36h.82L216,65.79a12.05,12.05,0,0,0,2.43,4.14,4.94,4.94,0,0,0,3,1.07v.87H208.91V71a4.7,4.7,0,0,0,2.57-.63,1.63,1.63,0,0,0,.67-1.31,9.72,9.72,0,0,0-.94-3.26Zm-.66-1.73-5.39-12.84-5.53,12.84Z" transform="translate(-23.11 -0.55)"/><path class="cls-1" d="M230.87,38.54V67a7.79,7.79,0,0,0,.29,2.67,2.08,2.08,0,0,0,.9,1,5.19,5.19,0,0,0,2.27.34v.84H223.82V71a4.55,4.55,0,0,0,2-.3,2,2,0,0,0,.84-1A7.85,7.85,0,0,0,227,67V47.51a33.8,33.8,0,0,0-.16-4.46,2,2,0,0,0-.53-1.14,1.39,1.39,0,0,0-.93-.3,4.38,4.38,0,0,0-1.55.38l-.4-.82,6.4-2.62Z" transform="translate(-23.11 -0.55)"/><path class="cls-1" d="M244.21,38.54V67a7.79,7.79,0,0,0,.29,2.67,2.08,2.08,0,0,0,.9,1,5.19,5.19,0,0,0,2.27.34v.84H237.15V71a4.55,4.55,0,0,0,2-.3,2,2,0,0,0,.84-1,7.85,7.85,0,0,0,.3-2.7V47.51a33.8,33.8,0,0,0-.16-4.46,2,2,0,0,0-.53-1.14,1.39,1.39,0,0,0-.93-.3,4.38,4.38,0,0,0-1.55.38l-.4-.82,6.4-2.62Z" transform="translate(-23.11 -0.55)"/><path class="cls-1" d="M257.57,49.76V67a7.9,7.9,0,0,0,.29,2.68,2.06,2.06,0,0,0,.87,1,4.64,4.64,0,0,0,2.1.33v.84H250.39V71a4.85,4.85,0,0,0,2.11-.3,2.09,2.09,0,0,0,.86-1,7.58,7.58,0,0,0,.32-2.7V58.74a29.26,29.26,0,0,0-.21-4.52,1.84,1.84,0,0,0-.52-1,1.46,1.46,0,0,0-1-.29,4.69,4.69,0,0,0-1.59.35l-.33-.84,6.47-2.62Zm-1.95-11.23A2.36,2.36,0,0,1,258,40.9a2.32,2.32,0,0,1-.69,1.69,2.26,2.26,0,0,1-1.68.7,2.38,2.38,0,1,1,0-4.76Z" transform="translate(-23.11 -0.55)"/><path class="cls-1" d="M275.66,68.77a35.38,35.38,0,0,1-4.15,3,6.34,6.34,0,0,1-2.7.59,4.83,4.83,0,0,1-3.67-1.52,5.59,5.59,0,0,1-1.44-4,5.1,5.1,0,0,1,.7-2.72,9.31,9.31,0,0,1,3.34-3,52,52,0,0,1,7.91-3.42v-.84q0-3.21-1-4.41a3.68,3.68,0,0,0-3-1.2,3.33,3.33,0,0,0-2.34.8,2.4,2.4,0,0,0-.89,1.83l0,1.36a2.34,2.34,0,0,1-.55,1.66,1.89,1.89,0,0,1-1.44.59,1.82,1.82,0,0,1-1.42-.61,2.39,2.39,0,0,1-.55-1.66,4.8,4.8,0,0,1,2.06-3.7,8.91,8.91,0,0,1,5.79-1.69,10,10,0,0,1,4.69,1,4.42,4.42,0,0,1,2,2.27,12.81,12.81,0,0,1,.42,4.13v7.29a33.38,33.38,0,0,0,.12,3.76,1.58,1.58,0,0,0,.39.93.92.92,0,0,0,.62.23,1.28,1.28,0,0,0,.66-.16,14.64,14.64,0,0,0,1.9-1.71v1.31q-2.62,3.52-5,3.52a2.28,2.28,0,0,1-1.83-.8A4.3,4.3,0,0,1,275.66,68.77Zm0-1.52V59.07a46.28,46.28,0,0,0-4.57,2,7.89,7.89,0,0,0-2.65,2.16,4.17,4.17,0,0,0-.8,2.46,4,4,0,0,0,1,2.8A3.05,3.05,0,0,0,271,69.59Q272.75,69.59,275.66,67.25Z" transform="translate(-23.11 -0.55)"/><path class="cls-1" d="M291.06,54.31q3.77-4.55,7.2-4.55a5.17,5.17,0,0,1,3,.88,5.89,5.89,0,0,1,2,2.89,13.39,13.39,0,0,1,.52,4.31V67a7.72,7.72,0,0,0,.33,2.77,1.93,1.93,0,0,0,.83.91,4.72,4.72,0,0,0,2.12.33v.84H296.47V71h.45a3.57,3.57,0,0,0,2.1-.46,2.4,2.4,0,0,0,.83-1.35,13.69,13.69,0,0,0,.09-2.2V58.22a8.92,8.92,0,0,0-.76-4.25,2.72,2.72,0,0,0-2.57-1.32q-2.79,0-5.55,3V67a8.09,8.09,0,0,0,.26,2.7,2.17,2.17,0,0,0,.9,1,5.59,5.59,0,0,0,2.33.32v.84H283.93V71h.47a2.52,2.52,0,0,0,2.21-.83,6.07,6.07,0,0,0,.57-3.18V59a34.63,34.63,0,0,0-.18-4.71,2,2,0,0,0-.54-1.15,1.46,1.46,0,0,0-1-.3,4.5,4.5,0,0,0-1.57.35l-.35-.84L290,49.76h1Z" transform="translate(-23.11 -0.55)"/><path class="cls-1" d="M327,63.71a11.63,11.63,0,0,1-3.4,6.53,8.17,8.17,0,0,1-5.6,2.29,8.28,8.28,0,0,1-6.37-3.07,12.06,12.06,0,0,1-2.72-8.3,11.44,11.44,0,0,1,3-8.23,9.63,9.63,0,0,1,7.23-3.16,7.93,7.93,0,0,1,5.2,1.68,4.63,4.63,0,0,1,2,3.48,1.91,1.91,0,0,1-.57,1.44,2.22,2.22,0,0,1-1.61.55,2.5,2.5,0,0,1-2.09-.89,3.7,3.7,0,0,1-.53-1.87,3.07,3.07,0,0,0-.95-2.11,3.38,3.38,0,0,0-2.27-.7,4.65,4.65,0,0,0-3.77,1.73,9.22,9.22,0,0,0-1.9,6.07,12.29,12.29,0,0,0,1.89,6.79,5.79,5.79,0,0,0,5.1,2.94,6.16,6.16,0,0,0,4.13-1.57,10.6,10.6,0,0,0,2.51-3.91Z" transform="translate(-23.11 -0.55)"/><path class="cls-1" d="M333.71,58.48A11,11,0,0,0,336,66a7.08,7.08,0,0,0,5.51,2.72,6,6,0,0,0,3.67-1.16,8.56,8.56,0,0,0,2.61-4l.73.47a11.18,11.18,0,0,1-2.86,5.85,7.64,7.64,0,0,1-5.93,2.64,8.66,8.66,0,0,1-6.62-3,11.54,11.54,0,0,1-2.75-8.1q0-5.51,2.82-8.59a9.21,9.21,0,0,1,7.09-3.08,7.93,7.93,0,0,1,5.93,2.38,8.72,8.72,0,0,1,2.32,6.36Zm0-1.36h9.94a9.19,9.19,0,0,0-.49-2.91,4.65,4.65,0,0,0-1.75-2.06A4.4,4.4,0,0,0,339,51.4a4.83,4.83,0,0,0-3.48,1.51A6.56,6.56,0,0,0,333.71,57.12Z" transform="translate(-23.11 -0.55)"/><path class="cls-2" d="M359.73,41.82V54.31h5.79a4.12,4.12,0,0,0,2.92-.88,5.81,5.81,0,0,0,1.23-3.48h.87V60.71h-.87a6.28,6.28,0,0,0-.48-2.72,3,3,0,0,0-1.27-1.3,5.23,5.23,0,0,0-2.4-.43h-5.79v10a10.52,10.52,0,0,0,.3,3.19,2.1,2.1,0,0,0,1,1,4.44,4.44,0,0,0,2.16.56h1.15v.87H350.68V71h1.13a3.39,3.39,0,0,0,2.86-1.15q.56-.75.56-3.61V45.71a10.52,10.52,0,0,0-.3-3.19,2.11,2.11,0,0,0-1-1,4.35,4.35,0,0,0-2.16-.56h-1.12v-.87h23.65l.3,7h-.82a9.61,9.61,0,0,0-1.42-3.27,4.66,4.66,0,0,0-2-1.51,10.64,10.64,0,0,0-3.67-.47Z" transform="translate(-23.11 -0.55)"/><path class="cls-2" d="M384.39,49.76v4.83q2.7-4.83,5.53-4.83a3,3,0,0,1,2.13.79,2.41,2.41,0,0,1,.84,1.82,2.15,2.15,0,0,1-.61,1.55,2,2,0,0,1-1.45.63,3.1,3.1,0,0,1-1.84-.81,3,3,0,0,0-1.51-.81,1.4,1.4,0,0,0-.91.47,11.28,11.28,0,0,0-2.18,3.16V66.85a6.37,6.37,0,0,0,.45,2.7,2.43,2.43,0,0,0,1.08,1.05,4.74,4.74,0,0,0,2.23.42v.84h-11V71a4.56,4.56,0,0,0,2.44-.52,2,2,0,0,0,.82-1.2,12.06,12.06,0,0,0,.12-2.27V58.71a34.58,34.58,0,0,0-.15-4.46,1.75,1.75,0,0,0-.56-1,1.58,1.58,0,0,0-1-.33,4.63,4.63,0,0,0-1.64.35l-.23-.84,6.49-2.62Z" transform="translate(-23.11 -0.55)"/><path class="cls-2" d="M406.25,68.77a35.38,35.38,0,0,1-4.15,3,6.34,6.34,0,0,1-2.7.59,4.83,4.83,0,0,1-3.67-1.52,5.59,5.59,0,0,1-1.44-4,5.1,5.1,0,0,1,.7-2.72,9.31,9.31,0,0,1,3.34-3,52,52,0,0,1,7.91-3.42v-.84q0-3.21-1-4.41a3.68,3.68,0,0,0-3-1.2,3.33,3.33,0,0,0-2.34.8,2.4,2.4,0,0,0-.89,1.83l0,1.36a2.34,2.34,0,0,1-.55,1.66,1.89,1.89,0,0,1-1.44.59,1.82,1.82,0,0,1-1.42-.61,2.39,2.39,0,0,1-.55-1.66,4.8,4.8,0,0,1,2.06-3.7A8.91,8.91,0,0,1,403,49.76a10,10,0,0,1,4.69,1,4.42,4.42,0,0,1,2,2.27,12.81,12.81,0,0,1,.42,4.13v7.29a33.38,33.38,0,0,0,.12,3.76,1.58,1.58,0,0,0,.39.93.92.92,0,0,0,.62.23,1.28,1.28,0,0,0,.66-.16,14.64,14.64,0,0,0,1.9-1.71v1.31q-2.62,3.52-5,3.52a2.28,2.28,0,0,1-1.83-.8A4.3,4.3,0,0,1,406.25,68.77Zm0-1.52V59.07a46.28,46.28,0,0,0-4.57,2A7.89,7.89,0,0,0,399,63.21a4.17,4.17,0,0,0-.8,2.46,4,4,0,0,0,1,2.8,3.05,3.05,0,0,0,2.32,1.11Q403.35,69.59,406.25,67.25Z" transform="translate(-23.11 -0.55)"/><path class="cls-2" d="M421.65,54.31q3.77-4.55,7.2-4.55a5.17,5.17,0,0,1,3,.88,5.89,5.89,0,0,1,2,2.89,13.39,13.39,0,0,1,.52,4.31V67a7.72,7.72,0,0,0,.33,2.77,1.93,1.93,0,0,0,.83.91,4.72,4.72,0,0,0,2.12.33v.84H427.07V71h.45a3.57,3.57,0,0,0,2.1-.46,2.4,2.4,0,0,0,.83-1.35,13.69,13.69,0,0,0,.09-2.2V58.22a8.92,8.92,0,0,0-.76-4.25,2.72,2.72,0,0,0-2.57-1.32q-2.79,0-5.55,3V67a8.09,8.09,0,0,0,.26,2.7,2.17,2.17,0,0,0,.9,1,5.59,5.59,0,0,0,2.33.32v.84H414.53V71H415a2.52,2.52,0,0,0,2.21-.83,6.07,6.07,0,0,0,.57-3.18V59a34.63,34.63,0,0,0-.18-4.71,2,2,0,0,0-.54-1.15,1.46,1.46,0,0,0-1-.3,4.5,4.5,0,0,0-1.57.35l-.35-.84,6.47-2.62h1Z" transform="translate(-23.11 -0.55)"/><path class="cls-2" d="M456.95,63.38a10.6,10.6,0,0,1-2.51,3.91,6.16,6.16,0,0,1-4.12,1.57,5.79,5.79,0,0,1-5.1-2.94,12.29,12.29,0,0,1-1.89-6.79,9.22,9.22,0,0,1,1.9-6.07A4.65,4.65,0,0,1,449,51.33a3.38,3.38,0,0,1,2.27.7,3.07,3.07,0,0,1,.95,2.11,3.7,3.7,0,0,0,.53,1.88,2.5,2.5,0,0,0,2.09.89,2.22,2.22,0,0,0,1.61-.55,1.91,1.91,0,0,0,.57-1.44,4.63,4.63,0,0,0-2-3.48,7.93,7.93,0,0,0-5.2-1.68,9.63,9.63,0,0,0-7.23,3.16,11.44,11.44,0,0,0-3,8.23,12.06,12.06,0,0,0,2.72,8.3,8.32,8.32,0,0,0,6,3.05l-2,3.16a5.13,5.13,0,0,1,.61,0,1.86,1.86,0,0,1,1.34.52,1.63,1.63,0,0,1,.54,1.22,2.42,2.42,0,0,1-.82,1.79,2.8,2.8,0,0,1-2,.79,8.13,8.13,0,0,1-1.12-.09v1A18.74,18.74,0,0,0,447,81a5.19,5.19,0,0,0,3.63-1.28,3.9,3.9,0,0,0,1.41-3,3.3,3.3,0,0,0-.73-2.16,4,4,0,0,0-2.2-1.27l.57-.9a8.38,8.38,0,0,0,4.51-2.2,11.63,11.63,0,0,0,3.4-6.53Z" transform="translate(-23.11 -0.55)"/><path class="cls-2" d="M472.86,68.77a35.38,35.38,0,0,1-4.15,3,6.34,6.34,0,0,1-2.7.59,4.83,4.83,0,0,1-3.67-1.52,5.59,5.59,0,0,1-1.44-4,5.1,5.1,0,0,1,.7-2.72,9.31,9.31,0,0,1,3.34-3,52,52,0,0,1,7.91-3.42v-.84q0-3.21-1-4.41a3.68,3.68,0,0,0-3-1.2,3.33,3.33,0,0,0-2.34.8,2.4,2.4,0,0,0-.89,1.83l0,1.36a2.34,2.34,0,0,1-.55,1.66,1.89,1.89,0,0,1-1.44.59,1.82,1.82,0,0,1-1.42-.61,2.39,2.39,0,0,1-.55-1.66,4.8,4.8,0,0,1,2.06-3.7,8.91,8.91,0,0,1,5.79-1.69,10,10,0,0,1,4.69,1,4.42,4.42,0,0,1,2,2.27,12.81,12.81,0,0,1,.42,4.13v7.29a33.38,33.38,0,0,0,.12,3.76,1.58,1.58,0,0,0,.39.93.92.92,0,0,0,.62.23,1.28,1.28,0,0,0,.66-.16,14.64,14.64,0,0,0,1.9-1.71v1.31q-2.62,3.52-5,3.52a2.28,2.28,0,0,1-1.83-.8A4.3,4.3,0,0,1,472.86,68.77Zm0-1.52V59.07a46.28,46.28,0,0,0-4.57,2,7.89,7.89,0,0,0-2.65,2.16,4.17,4.17,0,0,0-.8,2.46,4,4,0,0,0,1,2.8,3.05,3.05,0,0,0,2.32,1.11Q470,69.59,472.86,67.25Z" transform="translate(-23.11 -0.55)"/><path class="cls-2" d="M489.41,49.76V67a7.9,7.9,0,0,0,.29,2.68,2.06,2.06,0,0,0,.87,1,4.64,4.64,0,0,0,2.1.33v.84H482.24V71a4.85,4.85,0,0,0,2.11-.3,2.09,2.09,0,0,0,.86-1,7.58,7.58,0,0,0,.32-2.7V58.74a29.26,29.26,0,0,0-.21-4.52,1.84,1.84,0,0,0-.52-1,1.46,1.46,0,0,0-1-.29,4.69,4.69,0,0,0-1.59.35l-.33-.84,6.47-2.62Zm-1.95-11.23a2.36,2.36,0,0,1,2.37,2.37,2.32,2.32,0,0,1-.69,1.69,2.26,2.26,0,0,1-1.68.7,2.38,2.38,0,1,1,0-4.76Z" transform="translate(-23.11 -0.55)"/><path class="cls-2" d="M509.21,49.76v7.31h-.77q-.89-3.45-2.29-4.69a5.14,5.14,0,0,0-3.55-1.24A3.92,3.92,0,0,0,500,52a2.52,2.52,0,0,0-1,1.92,3.49,3.49,0,0,0,.75,2.25,8.34,8.34,0,0,0,3,2l3.42,1.66q4.76,2.32,4.76,6.12a5.78,5.78,0,0,1-2.21,4.72,7.68,7.68,0,0,1-5,1.79,17,17,0,0,1-4.5-.7,4.57,4.57,0,0,0-1.27-.23.93.93,0,0,0-.84.61h-.77V64.53h.77a8.72,8.72,0,0,0,2.51,4.95,6.05,6.05,0,0,0,4.15,1.66,3.72,3.72,0,0,0,2.64-.95,3,3,0,0,0,1-2.29,3.64,3.64,0,0,0-1.14-2.72,19.85,19.85,0,0,0-4.54-2.79,13.44,13.44,0,0,1-4.45-3A5.28,5.28,0,0,1,496.18,56,6,6,0,0,1,498,51.54a6.43,6.43,0,0,1,4.7-1.78,11,11,0,0,1,3.07.54,7.25,7.25,0,0,0,1.59.35.93.93,0,0,0,.59-.16,2.25,2.25,0,0,0,.49-.73Z" transform="translate(-23.11 -0.55)"/><path class="cls-2" d="M517.63,58.48a11,11,0,0,0,2.32,7.5,7.08,7.08,0,0,0,5.51,2.72,6,6,0,0,0,3.67-1.16,8.56,8.56,0,0,0,2.61-4l.73.47a11.18,11.18,0,0,1-2.86,5.85,7.64,7.64,0,0,1-5.93,2.64,8.66,8.66,0,0,1-6.62-3,11.54,11.54,0,0,1-2.75-8.1q0-5.51,2.82-8.59a9.21,9.21,0,0,1,7.09-3.08,7.93,7.93,0,0,1,5.93,2.38,8.72,8.72,0,0,1,2.32,6.36Zm0-1.36h9.94a9.19,9.19,0,0,0-.49-2.91,4.65,4.65,0,0,0-1.75-2.06,4.4,4.4,0,0,0-2.43-.75,4.83,4.83,0,0,0-3.48,1.51A6.56,6.56,0,0,0,517.63,57.12Z" transform="translate(-23.11 -0.55)"/><path class="cls-3" d="M312,127a10.84,10.84,0,0,1-3.07,2.36,7.42,7.42,0,0,1-3.23.71,8,8,0,0,1-6.14-2.94,10.93,10.93,0,0,1-2.62-7.56,13.66,13.66,0,0,1,2.91-8.45,9,9,0,0,1,7.48-3.83,6.44,6.44,0,0,1,4.69,1.8v-4a32.4,32.4,0,0,0-.18-4.52,2,2,0,0,0-.55-1.15,1.44,1.44,0,0,0-.94-.3,4.94,4.94,0,0,0-1.62.38l-.3-.82,6.4-2.62h1.05V121a33.21,33.21,0,0,0,.18,4.61,2,2,0,0,0,.56,1.16,1.35,1.35,0,0,0,.9.33,5.1,5.1,0,0,0,1.69-.4l.26.82-6.37,2.65H312Zm0-1.64V114.35a7.48,7.48,0,0,0-.84-2.91,4.87,4.87,0,0,0-1.86-2,4.52,4.52,0,0,0-2.26-.67,4.8,4.8,0,0,0-3.68,1.85q-2.13,2.44-2.13,7.13t2.06,7.25a5.91,5.91,0,0,0,4.59,2.52A5.71,5.71,0,0,0,312,125.41Z" transform="translate(-23.11 -0.55)"/><path class="cls-3" d="M324.43,116.08a11,11,0,0,0,2.32,7.5,7.08,7.08,0,0,0,5.51,2.72,6,6,0,0,0,3.67-1.16,8.56,8.56,0,0,0,2.61-4l.73.47a11.18,11.18,0,0,1-2.86,5.85,7.64,7.64,0,0,1-5.93,2.64,8.66,8.66,0,0,1-6.62-3,11.54,11.54,0,0,1-2.75-8.1q0-5.51,2.82-8.59a9.21,9.21,0,0,1,7.09-3.08,7.93,7.93,0,0,1,5.93,2.38,8.72,8.72,0,0,1,2.32,6.36Zm0-1.36h9.94a9.19,9.19,0,0,0-.49-2.91,4.65,4.65,0,0,0-1.75-2.06,4.4,4.4,0,0,0-2.43-.75,4.83,4.83,0,0,0-3.48,1.51A6.56,6.56,0,0,0,324.43,114.72Z" transform="translate(-23.11 -0.55)"/><path class="cls-3" d="M362.45,99.42v12.49h5.79a4.12,4.12,0,0,0,2.92-.88,5.81,5.81,0,0,0,1.23-3.48h.87v10.76h-.87a6.28,6.28,0,0,0-.48-2.72,3,3,0,0,0-1.27-1.3,5.23,5.23,0,0,0-2.4-.43h-5.79v10a10.52,10.52,0,0,0,.3,3.19,2.1,2.1,0,0,0,1,1,4.44,4.44,0,0,0,2.16.56H367v.87H353.4v-.87h1.13a3.39,3.39,0,0,0,2.86-1.15q.56-.75.56-3.61V103.31a10.52,10.52,0,0,0-.3-3.19,2.11,2.11,0,0,0-1-1,4.35,4.35,0,0,0-2.16-.56H353.4v-.87h23.65l.3,7h-.82a9.61,9.61,0,0,0-1.42-3.27,4.66,4.66,0,0,0-2-1.51,10.64,10.64,0,0,0-3.67-.47Z" transform="translate(-23.11 -0.55)"/><path class="cls-3" d="M388.23,107.36v17.25a7.9,7.9,0,0,0,.29,2.68,2.06,2.06,0,0,0,.87,1,4.64,4.64,0,0,0,2.1.33v.84H381.06v-.84a4.85,4.85,0,0,0,2.11-.3,2.09,2.09,0,0,0,.86-1,7.58,7.58,0,0,0,.32-2.7v-8.27a29.26,29.26,0,0,0-.21-4.52,1.84,1.84,0,0,0-.52-1,1.46,1.46,0,0,0-1-.29,4.69,4.69,0,0,0-1.59.35l-.33-.84,6.47-2.62Zm-1.95-11.23a2.36,2.36,0,0,1,2.37,2.37,2.32,2.32,0,0,1-.69,1.69,2.26,2.26,0,0,1-1.68.7,2.38,2.38,0,1,1,0-4.76Z" transform="translate(-23.11 -0.55)"/><path class="cls-3" d="M404.66,107.36a9.51,9.51,0,0,1,7.83,3.7,11.37,11.37,0,0,1,2.51,7.27,13.68,13.68,0,0,1-1.38,5.84,9.82,9.82,0,0,1-9.21,6,9.1,9.1,0,0,1-7.71-3.87,12,12,0,0,1-2.41-7.31,13,13,0,0,1,1.46-5.87,10,10,0,0,1,3.86-4.31A9.89,9.89,0,0,1,404.66,107.36Zm-.73,1.52a4.89,4.89,0,0,0-2.5.74,5.18,5.18,0,0,0-2,2.59,12.46,12.46,0,0,0-.77,4.76,16.58,16.58,0,0,0,1.86,8.09q1.86,3.4,4.91,3.4a4.58,4.58,0,0,0,3.75-1.88q1.48-1.87,1.48-6.45,0-5.72-2.46-9A5.07,5.07,0,0,0,403.93,108.88Z" transform="translate(-23.11 -0.55)"/><path class="cls-3" d="M424.42,111.91q3.77-4.55,7.2-4.55a5.17,5.17,0,0,1,3,.88,5.89,5.89,0,0,1,2,2.89,13.39,13.39,0,0,1,.52,4.31v9.16a7.72,7.72,0,0,0,.33,2.77,1.93,1.93,0,0,0,.83.91,4.72,4.72,0,0,0,2.12.33v.84H429.83v-.84h.45a3.57,3.57,0,0,0,2.1-.46,2.4,2.4,0,0,0,.83-1.35,13.69,13.69,0,0,0,.09-2.2v-8.79a8.92,8.92,0,0,0-.76-4.25,2.72,2.72,0,0,0-2.57-1.32q-2.79,0-5.55,3v11.32a8.09,8.09,0,0,0,.26,2.7,2.17,2.17,0,0,0,.9,1,5.59,5.59,0,0,0,2.33.32v.84H417.29v-.84h.47a2.52,2.52,0,0,0,2.21-.83,6.07,6.07,0,0,0,.57-3.18v-8a34.63,34.63,0,0,0-.18-4.71,2,2,0,0,0-.54-1.15,1.46,1.46,0,0,0-1-.3,4.5,4.5,0,0,0-1.57.35l-.35-.84,6.47-2.62h1Z" transform="translate(-23.11 -0.55)"/><path class="cls-3" d="M449.57,107.36v17.25a7.9,7.9,0,0,0,.29,2.68,2.06,2.06,0,0,0,.87,1,4.64,4.64,0,0,0,2.1.33v.84H442.39v-.84a4.85,4.85,0,0,0,2.11-.3,2.09,2.09,0,0,0,.86-1,7.58,7.58,0,0,0,.32-2.7v-8.27a29.26,29.26,0,0,0-.21-4.52,1.84,1.84,0,0,0-.52-1,1.46,1.46,0,0,0-1-.29,4.69,4.69,0,0,0-1.59.35l-.33-.84,6.47-2.62Zm-1.95-11.23A2.36,2.36,0,0,1,450,98.5a2.32,2.32,0,0,1-.69,1.69,2.26,2.26,0,0,1-1.68.7,2.38,2.38,0,1,1,0-4.76Z" transform="translate(-23.11 -0.55)"/><path class="cls-3" d="M459.1,116.08a11,11,0,0,0,2.32,7.5,7.08,7.08,0,0,0,5.51,2.72,6,6,0,0,0,3.67-1.16,8.56,8.56,0,0,0,2.61-4l.73.47a11.18,11.18,0,0,1-2.86,5.85,7.64,7.64,0,0,1-5.93,2.64,8.66,8.66,0,0,1-6.62-3,11.54,11.54,0,0,1-2.75-8.1q0-5.51,2.82-8.59a9.21,9.21,0,0,1,7.09-3.08,7.93,7.93,0,0,1,5.93,2.38,8.72,8.72,0,0,1,2.32,6.36Zm0-1.36H469a9.19,9.19,0,0,0-.49-2.91,4.65,4.65,0,0,0-1.75-2.06,4.4,4.4,0,0,0-2.43-.75,4.83,4.83,0,0,0-3.48,1.51A6.56,6.56,0,0,0,459.1,114.72Z" transform="translate(-23.11 -0.55)"/><rect class="cls-4" y="0.09" width="162.59" height="154.81"/><path class="cls-5" d="M84,131.22l.13.13a1.39,1.39,0,0,1,.64.13v.64c-.64.26-.64.26-.64.51h1.8v-.51h-.51v-.77a.13.13,0,0,1,.13-.13h.38v.51c.64,0,1.41.13,2.05.13-.13.13-.13.38-.26.64,1.15.13,2.44.38,3.59.51-.38,0-.38,0-.38.26,1.28-.13,2.69-.26,4.1-.26,0-.38,0-.38.26-.38a3,3,0,0,0,.38,1.15,2.5,2.5,0,0,1,1-.13c1.92,1.92,7.57-.13,10.52.26v.51c1.28,0,1.67-.51,3.08-.77.51,1,1.67.77,3.33.77v-.51c1.67-.38,2.05-.77,3.46-1a1.16,1.16,0,0,1,.13-.64,2.59,2.59,0,0,0,1.15-.9,2.18,2.18,0,0,1,.9.13v.38c.77,0,2.05.38,2.31-.64.51-.13,1-.13,1.67-.26v-.38c.38,0,1.67,0,2.05-.9a4.56,4.56,0,0,1,1.28-.26c0-.26.13-.38.13-.51,1-.13,2.05-.9,3.33-1.15.13-.64.38-1,.64-2.44,1,.26,1.8.9,3.46.77a5.56,5.56,0,0,1,.13-.64.13.13,0,0,1,.13-.13c1-1.15,1-1.15,1.92-2.05l.38.38a5.35,5.35,0,0,1,2.05-1.67c0-1,2.05-2.82,2.56-3.46,0-3.59,4.49-4.23,4.49-7.57.51-.64,3.08-3.72,3.59-3.85a2.83,2.83,0,0,1,.13-1c.77-.38.77-1,.9-1.54a2.81,2.81,0,0,1,.64-.38c0-2.31,1-2.82,2.31-4.36.13-1.67-.13-3.21.26-4.36h.51c.51-1.41,1.54-2.95,1.67-4.49a1.44,1.44,0,0,1-.38-1c.38,0,.9-.13,1.28-.13a2.18,2.18,0,0,0,.13-.9c-.64-.13-1.28-.13-2.05-.26a22.07,22.07,0,0,1,.9-2.69,7.23,7.23,0,0,0,.51,1.54c1.41-.77,1.54-1.54,1.41-2.44-.77-.51-1.15-1-1.67-1.15.13-1.15.13-2.31.26-3.46h.51c0,.64.13,1.28.13,1.8a1.63,1.63,0,0,0,.77-.13V80.83c-.26,0-.51-.13-.77-.13,0-1.67-.26-6.28.38-7.31.26.51.26.51.51,2.44a1.76,1.76,0,0,0,1.41-.51,13.29,13.29,0,0,0-.64-4.74,2.17,2.17,0,0,0-.64-.26c-.26-1-1.15-6-.64-6.41.26.77-.13,2.18,1.8,2.05-.38-2.18-1-4.74-1.15-6.28a1.85,1.85,0,0,1-.9-.26c-.13-2.18-.13-2.18-.13-3.21-.13-.13-.26-.13-.51-.26-.13-.51-.38-1-.51-1.54-.13,0-.38-.13-.51-.13A2.83,2.83,0,0,0,154,53c-.38-2.18-.51-3.46-1.92-4.1-1.8-2.95-1.67-5.9-4.1-7.69-.64,1-.64,1-.51,1.54.26.13.51.13.77.26.38.77,1.54,2.18.51,3.59-.64-1.67-2.82-6-4.1-6a3,3,0,0,1-.38,1.54c-.26-.9-1.41-2.82-1.54-3.21-.26-.13-.64-.26-.9-.38,0-.13.13-.26.13-.38a19.6,19.6,0,0,0-1.41-2.05H140a2.79,2.79,0,0,1-.26,1.28c-.38-.9-.77-1.28-1.54-3.08-.9-.13-1.92-.13-2.82-.26v.77h-.64c-.26-1-.64-.77-.64-1.15a9.45,9.45,0,0,0-1.8-.51,8.8,8.8,0,0,0,1-.38c-1.15-.13-1.41-.38-1.67-.77l-.13-.13c-.51-.26-.51-.26-.77-1-.51.64-.64,1.15-1.28,1.28v.13c-.26.38-.26.38-.38,1.41h-.51a8.45,8.45,0,0,0-.13,1.8,1.82,1.82,0,0,0,.26-.77h.64v.64c.26,0,.51.13.9.13.26-1,.77-1.28,1.15-2.05a2.8,2.8,0,0,0,.64.38.77.77,0,0,0-.51.13l-.13.13c-.13.51-.13.9-.26,1.41h-.51c-.13.13-.13.26-.13.51,1.28,1,1.28,1,1.8,1v-.38a1.63,1.63,0,0,1,.77-.13,2.82,2.82,0,0,0,.13,1h-.38a.13.13,0,0,0-.13-.13c-.13,0-.13,0-.13.13a.13.13,0,0,1,.13.13c.77.38,4.87,2.95,3.59,5.13-1-1.15-4.62-4.36-4.87-5h-.51a.8.8,0,0,0-1.15-.64c-.13.13-.13.26-.26.38a1,1,0,0,0-.51-.26c.13-.38.38-.77.51-1.15h-1c-.13-.13-.13-.26-.26-.51a6.28,6.28,0,0,1-.9-.38c.26-.64.51-1.41.9-2.18a180.76,180.76,0,0,0,.26-.26.13.13,0,0,1,.13-.13h0l.13-.13a606538.3,606538.3,0,0,1,.38-.38.13.13,0,0,1,.13-.13,3.84,3.84,0,0,0,.77-2.31c-.13,0-.26-.13-.51-.13V29c-1.28,0-1.92.51-2.95.64,0-.13-.13-.26-.13-.38.38-.13,1-.26,1.54-.38-2.05-.51-2.44-1.28-3.85-1.41V27l2.69.38c.51-.51.51-.51,1.41-.38v1h.38c0-.26.13-.38.13-.51a3,3,0,0,0,1.8,1.41v.38h.9c0,.38.13.77.13,1.15h-.38c.38.9.77,1.54,2.56,2.18,0-.13.13-.26.13-.38h.38v.9h.26v-.64h.26v.64h2.05v-.51a33.44,33.44,0,0,0,3.59,2.18c.26,0,.38-.13.64-.26-.38-.51-.64-1-1-1.54a1.44,1.44,0,0,1-1.8-.26,5.13,5.13,0,0,1,1.15-.38,2.7,2.7,0,0,0-1.41-.64c0-.13,0-.13.13-.13s.26-.13.38-.13c-.13-.13-.26-.26-.38-.26a.45.45,0,0,0-.13.26l-.13.13c-.9,0-1.54-.9-1.8-1.15.13-.13.26-.13.51-.26,0-.13-.13-.38-.13-.51h-.51c-.13.38-.13.64-.26,1h-.9c-.13-.38-.13-.77-.26-1a.13.13,0,0,1,.13-.13c0-.13,0-.13-.13-.13a.13.13,0,0,0-.13.13c-.13-.13-.26-.26-.26-.38s.13-.38.13-.51c-1-.13-1-.13-1.28-.38.26-.38.26-.38,1.54-.64a6.35,6.35,0,0,0-3.08-.77v-.26h.9v-.26h-.9a.77.77,0,0,1,.13-.51c-3.59-.38-6.16-2.95-9.1-3.72a1,1,0,0,1-.13-.51,10.61,10.61,0,0,1-3.21-.38c-.26.26-.26.26-.26.9.38.13.38.13.38.38h-.38c0,.51,0,.51-.26.51v-.77h-.38c-.38-1.28-1.28-1-1.28-2.05,2.05,0,4.23.13,6.28.13.13.26.26.38.38.64a8.83,8.83,0,0,1,1.67.26c.38.64,2.18,1.28,3.59,1.54a6.51,6.51,0,0,0,.26,1.15c2.05.13,3.59.9,6.16,1.15.26,1.15.38,1.15,2.18,1.8v.38h1c0,.26,0,.26-.51.38a.13.13,0,0,0-.13.13.13.13,0,0,1,.13.13c0-.13,0-.13.13-.13h.9l.13.13a1,1,0,0,0-.64.13v.26a.13.13,0,0,0-.13.13,2.48,2.48,0,0,0-1.15.64c.51.51.38.64,2.18.64a7.05,7.05,0,0,1-.9-1.15v-.13a4.33,4.33,0,0,0,2.05,1,1.63,1.63,0,0,1,.13.77,6.25,6.25,0,0,0,1.41.51.13.13,0,1,0,0,.26.13.13,0,0,1,.13-.13h.26a190.22,190.22,0,0,0,.26.26v.13a14259697.89,14259697.89,0,0,0,.26.26c1.15.77,1.92.64,2.82,2.31a21.47,21.47,0,0,0-.26-3.08,5.11,5.11,0,0,1-3.08-2.31c0,.64,0,.64.26,1a.47.47,0,0,0-.38.13c.38.38.38.77.77,1.8a225.92,225.92,0,0,0-.26-.26.13.13,0,0,1-.13-.13v-.13a.13.13,0,0,1-.13-.13,4.53,4.53,0,0,1-.9-1.8v.9h-.51V29.4a.13.13,0,0,1,.13-.13c-.13-2.44-.13-2.44-.38-3.21.51,0,.51,0,.51-.13a7.86,7.86,0,0,1-2.69-1h.64a1,1,0,0,1,.13-.64l-.13-.13a1.37,1.37,0,0,1-.9-1.67h1.28V23c3.08,1.28,6.28,1.67,8.85,5.39,2.31.77,5.26,5.39,7.31,7.82.77.51,1.15,1.15,1.92,2.69h.38c.26,1,.64,3.33,2.31,4.23a8.89,8.89,0,0,1,.38,1c.13,0,.26.13.51.13.51,1.8,1.8,3.46,2.05,5.64.38.51,1.8,6.41,1.54,7.82h-.51c-.13-.77-.13-1.54-.26-2.44h-.64c-.13-2.69-1.28-4.87-1.92-6.67-.26-.13-.38-.13-.51-.26-.13-.51-.13-1-.26-1.54h-.38c-.77-2.69-3.21-5.26-3.85-7.18-.13,0-.38-.13-.51-.13a4.12,4.12,0,0,0-2.56-2.69,5.54,5.54,0,0,0-2.18-4.36h-.64a1.55,1.55,0,0,0-.64.64l-.13-.13-.13-.13-.13-.13c-.13-.26-.13-.26-.64-.51-.38-2.69-1.54-2.82-2.05-4.23a1.63,1.63,0,0,0-.77.13,3.55,3.55,0,0,1,.13-1.15c-.26,0-.26,0-.26.51h-.64c-.26-.64-.26-.64-.64-.9a.13.13,0,0,0-.13-.13,3,3,0,0,0-1.15-.77l-.13-.13a.47.47,0,0,0-.38-.13L143,25.3a.4.4,0,0,0-.26-.13c-.13-.13-.13,0-.13,0-.51-.13-.51-.13-.51,0h.38l.13.13c-.13,0-.13,0-.13.13a.47.47,0,0,0-.38.13c.26.26.64.13.51,0s0-.13.13-.13h.13l.13.13a.47.47,0,0,1,.38.13l.13.13v1a3.75,3.75,0,0,1,1.15-.26.13.13,0,0,1,.13.13l-.38.77h.64v.77a1.54,1.54,0,0,1,1,.26,14,14,0,0,0,.13,2.31h.26c0-1.28,0-1.28.13-1.28.38,1.8.38,1.8.77,2.44.13-.13.26-.38.38-.38h.64c.38.64.38.64,1.28,1.28l.13.13.13.13.13.13c0,.51.26.9-.13,1.54a14.64,14.64,0,0,1,4.49,4.74c.64.26,1.15.77,1.28,2.05,1.54.77,3.33,5.13,4.36,7.31a.77.77,0,0,1,.51.13c.13.64.26,1.41.38,2.05h.51c.13,1,.26,3.59,1.8,4.36a4.86,4.86,0,0,0,1.28,3.46c1.67,1.15.9,2.05,2.31,3.85h.77c.9-2.05-.64-7.05-.77-8.85-.13-.13-.38-.13-.51-.26s-.13-.38-.13-.51h.64c.51.9,1,1.67,1.54,2.56a31.46,31.46,0,0,1,.26,3.46h.51c0,1.15-.38,5.13.77,6.8.26,7.44,0,10.64.26,13-.13,1-.9,1.92-.26,3.08-1.28,2.44-.13,4.62-1.54,7.44a28.27,28.27,0,0,1-2.82,8.85c-.26.26-.26.26-.77,2.05-1.15.51-1.92,3.46-2.18,5.13-.26.13-.38.13-.51.26a31.28,31.28,0,0,0-1.28,3.08c-.26,0-.38.13-.51.13a6.25,6.25,0,0,1-.13-1.54,4,4,0,0,0,1-2.44.13.13,0,0,1,.13-.13v-.38c-.13,0-.13.13-.13.26a.13.13,0,0,0-.13.13c-.51.26-.9-.26-1-.64-.26,0-.51.13-.77.13a6.44,6.44,0,0,0-.26,1.54c-1.15.64-.9,1.67-1.15,3.21a.56.56,0,0,0,.38.13v.64h-.38c0-.51,0-.51-.26-.51,0,2.05-2.56,2.95-3.72,3.85a14.21,14.21,0,0,0-.26,2.44l-.26-.26a12.7,12.7,0,0,0-2.18,1.41v-1h-.26c-.51,1.54-.64,2.31-2.05,3.08v.64c-1.8.26-1.28.77-2.44,1.67-2.05.38-2.95,2.44-4.74,3.21,0,.38-4.36,3.21-5.13,3.46l-.38,1.15c-1.15.26-1.15.38-1.67,1.15h-1.28v1.15c.38,0,2.56-1.15,3.08-.51a8.82,8.82,0,0,1-4,1.92c-.38.77-.77.77-1.41.77-.77,1.15-4,2.44-5,2.56-.13.13-.13.26-.26.51-1.15.13-1.92,1-2.95,1-1.15-1.15-1.67-.64-2.95-.64v.51l-3.59.38v.51c-3.59,0-7.44,1.54-10.77,1.92-3.72-2.05-9.62-.26-13.46.13v.51a7.6,7.6,0,0,0,1,.51c.13.26.13.51.26.77h.38v.51c-2.18-.9-6.16-.26-7.05-1,1.41-.26,2.95-.38,4.36-.51a1.63,1.63,0,0,0,.13-.77c-1.67-.13-6.67-.77-7.69-1.28.77-.51.77-.51,1.15-.51V138a5.36,5.36,0,0,1-2.18-.38v-.51a6.26,6.26,0,0,1,3.33.38c.13-.13.13-.26.26-.38h-.51v-.64c.64,0,.64,0,.9.26l-.26.26c.64.51.64.51.77,1,1,.13,1.92.13,2.95.26v.38c.9,0,1.8-.13,2.69-.13.51-.9.51-1.15.26-1.67-1.92-.13-3.85-.13-5.77-.26.13-.38.13-.64.26-1H82.34v-.26a14.21,14.21,0,0,1,2.44-.26c0-.26,0-.26-.51-.26,0-1.15-.77-3.33-.26-3.59Zm-.13,16.54v-.64a5.55,5.55,0,0,1,.64.13c.13.13.13.26.26.51Zm4.1,0V147c-.77-.13-.77-.13-1-.38,1.41.13,3.72.64,5.51.64.13.13.13.26.26.51Zm6.8,0a2.68,2.68,0,0,1-.51-.77H93a2.56,2.56,0,0,1,.26-1.15c.51-.26,1.54.38,2.56,1.15a2.26,2.26,0,0,0,.13.77ZM82.09,147v-.51a1.4,1.4,0,0,1,.64.13,2.8,2.8,0,0,0-.64.38Zm-5.77-.77c-.13-.13-.38-.13-.38-.26v-.38c-2.82,0-6-2.44-8.34-2.95,0-.13-.13-.38-.13-.51-.9-.13-1.67-.13-2.44-.26-.64-1-1.28-1-1.41-1.54-.64-.13-1.15-.13-1.67-.26a.77.77,0,0,0-.13-.51,1.82,1.82,0,0,0-.77-.26c-.13-.26-.13-.38-.26-.64,2.05.38,3.85,2.05,6.41,2.56a.77.77,0,0,1,.13.51c2.44.38,5.77,1.92,8.59,3.21,2.05.51,2.05.51,2.56.9,0,.13,0,.13-2.18.38Zm31.42,0v-.38h.51v.38ZM83,144.69A51.88,51.88,0,0,0,77.73,142c-1.41-.13-3.21-.13-3.46-1a7.26,7.26,0,0,1-4.74-2.31c-.13-.13-.26-.13-.51-.13V138c1,.38,4.74,2.82,5.9.9h.77c.13.51.26,1.28.38,1.92,2.18.26,3.33.77,5.77,2.31.51,0,3.33-.26,3.85,1.28a19.14,19.14,0,0,0-2.69.26Zm7.69-1.41V143h.26v.26Zm3.85-.51c-.13-.13-.26-.13-.38-.26a5.9,5.9,0,0,1,2.31-1.28v.51c2.82,0,5.64.13,8.46.26a15.13,15.13,0,0,1,1.67-.77v.38c.64.38,1.8.64,2.05.9-1.15.13-1.15.13-14.11.26Zm-12.44-1.15a7.38,7.38,0,0,0-2.31-.64c0-.13.13-.38.13-.51,1.41,0,2.95-.13,4.36-.13-.77,1.15-1.28,1.28-2.18,1.28Zm32.06-.38a1.63,1.63,0,0,1-.13-.77,8.67,8.67,0,0,1,1.8-.26,1.16,1.16,0,0,1,.13-.64c.64,0,1.28-.13,2.05-.13v.64c-1.67.13-2.82,1-3.85,1.15ZM101.32,141v-.51h.51l.26.26c-.26.13-.51.13-.77.26Zm-1.28-.26v-.26h.38v.26Zm-18.21-1.28c-1.28-.9-1.28-.9-1.41-1.41.77,0,1.28.38,2.56,1a12.16,12.16,0,0,0-1.15.38ZM72,138.66v-.38h.51v.38Zm-12.7-.13A7.17,7.17,0,0,0,54.9,136c-1.15-2.31-4.1-1.8-4.74-4.1a.77.77,0,0,1-.51-.13c0-.13-.13-.38-.13-.51,2.31,1.41,4.62,2.95,7.44,4.36V136c1.28.51,1.8,1.41,3.21,2.05v.51Zm-29-51.29v-5c.13-.13.26-.26.38-.26A17.23,17.23,0,0,1,31,77.49c.26.13.51.38.77.51.13.64-.13,3.46.9,4.36h1.15c-.13-2.18.13-3.85-.64-5.13A4.37,4.37,0,0,1,33.36,76c2.05,1,.51,3.72,2.18,5.9,0,1.28-.26,4.74,1.67,5.64.26.51.64,1.15.9,1.67A6.78,6.78,0,0,0,36.43,89v1.54l.77.38c.13,1.8,1.54,1.92,1.8,4.49h.51l.38,1.92c.13.13.38.26.51.38.13.51.13,1,.26,1.67,1.41,2.18,3.46,4.49,5.13,7.18,0,1,0,3.33,1.92,3.72.26.9,4.49,3.85,5.77,5.64h.9c.26-1.54-3.21-4.23-3.46-4.36a3.75,3.75,0,0,1-.26-1.15c-1.54-.38-1.28-1.41-1.41-2.05H50v.51c.38.26.51.13,1,1.41.64.13,3.21,2.56,3.46,3.59h.38c.38,1,2.95,2.05,3.46,3.72,1.15.26,2.82,2.82,4.74,3.72.51,1.54,9.62,4.1,9.62,5.77,2.44.38,3.46.9,5.13,3.72.77.13.9,0,2.05,1,0,4-3.85,2.95-6.16,2.18,0-.26-.13-.38-.13-.51h-1.8a1,1,0,0,0,.13.64,9.76,9.76,0,0,0,3.72,1.15c-.13.26-.13.64-.26.9-4.1.64-9.1-2.69-12.44-3.59-.51-1.67-5.26-3.46-6.41-3.72-1.92-1.54-7.31-6-7.31-7.31-2.18-.26-4.49-2.82-5-4-2.18-.77-3.46-5.26-4.87-6.16,0-.38-.13-.64-.13-1a2.18,2.18,0,0,0-.9-.13c-.51-3.21-4.1-6.41-4.1-9.1a1.12,1.12,0,0,1-.77-.9,22.46,22.46,0,0,0-1.8-5.26c-.38-2.05-.9-7.18-1.41-7.82Zm51.81,49a.45.45,0,0,1,.13-.26c.77-.13,1.54-.13,2.31-.26v.51Zm3.08,0c.13-.13.13-.26.26-.26h.51c-.26.13-.51.13-.77.26ZM59.52,136c-.51-.9-3.21-2.44-3.72-2.69v-.51c.38,0,4.36,1.67,4.23,3.08-.26,0-.38.13-.51.13Zm51.94-2.44a4.76,4.76,0,0,1-.26-1.15c1-.13,2.05-.26,3.21-.38,0,.26.13.38.13.64-.64,0-1.28.13-1.92.13a1.82,1.82,0,0,0-.26.77Zm-56.94-1.67a5.85,5.85,0,0,0-2.31-1.54c-.77-1.15-.64-1-1.15-1.15v-.64A5.05,5.05,0,0,1,48.1,124c1.8,1,3.85,4.23,6.28,5.26a3.28,3.28,0,0,1,1.28,2.56Zm29.62-.51-.13-.13c0-.13,0-.13.13-.13v.26Zm0-.13v-.13c.13-.26.38-.38.51-.51l.13.13c0-.13,0-.13.13-.13l-.13-.13c.13-.51.51-.77.9-1.67a3.19,3.19,0,0,1,1.15-.13c-.26.38-.51.9-.77,1.28-.13-.51-.13-.51-.38-.51v.9c-.13,0-.26.13-.38.13,0,.26.13.38.13.64a.13.13,0,0,0-.13.13Zm8.59,0a.47.47,0,0,1-.13-.38c.51-.64.51-.64,1-.77a3.74,3.74,0,0,0,.26,1.15h-.51v-.64h-.13v.64ZM95,131c-.13-.13-.13-.26-.13-.51.38,0,.64-.13,1-.13V131Zm5.64,0c-.13-.26-.13-.26.13-.64,0,.13.13.26.26.38-.13.13-.26.13-.38.26Zm5.26,0c-.13-.13-.13-.26-.13-.51a40.76,40.76,0,0,1,6-1c-.13.26-.13.38-.26.64a17.3,17.3,0,0,1-5.64.9Zm-21.16-.26-.13-.13c0-.13,0-.13.13-.13l.13.13c-.13,0-.13,0-.13.13Zm4.74-.38c.13-.13.13-.26.26-.38-.26-.13-.38-.13-.51-.26.38-.26.38-.38,1.15.13-.13.13-.13.26-.26.51Zm-2.31-.9V128c.38,0,1.67-.26,1.67,1.15-.51.13-1,.13-1.67.26Zm8.08-.9-.77-.38a2.82,2.82,0,0,1,1,.13.28.28,0,0,0-.26.26ZM91.06,128c.13-1.15.13-1.15.38-1.41.13.26.13.51.26.77a1.82,1.82,0,0,1,.26-.77,3.25,3.25,0,0,1,.13,1.41ZM98,125.58a.13.13,0,0,1,.13-.13c0-.13,0-.13-.13,0-.13-.13-.13,0-.13,0a1,1,0,0,0-.64-.13,4.56,4.56,0,0,0,.26,1.28h-.64c-.9-1.28.38-1.54.51-2.31.38.13.77.26,1.28.38l-.26.26c2.31-.38,4.23.26,6.8.38V126c-.77.13-1.41.13-2.18.26a1,1,0,0,0,.13.51c.64,0,1.41.13,2.05.13v.64c-1.28,0-2.56-.13-3.85-.13v-1.15c-1.15.13-2.44.13-3.59.26a1.85,1.85,0,0,1,.26-.9Zm-7.82,1.8c-.9-.9-1.41-.64-2.18-.77v-.38h2.95v1.15Zm24.36-.51c-.51-.13-.9-.13-1.28-.26v-.38c.38.13.64.13,1.15.26a6.24,6.24,0,0,1,.38-.9,6.28,6.28,0,0,0,.9.38v.9Zm-9.1-.26.26-.26a13.2,13.2,0,0,1,2.18.13,15.53,15.53,0,0,0-2.44.13Zm4.87-1.15v-.9h.13a8.16,8.16,0,0,0,.26.9ZM89,125.32c-.51-.51-.38-.51-.38-1h1.15v.64l-.77.38Zm4,0a11.74,11.74,0,0,1-.13-2.05c0-.13.13-.13.26-.26,0,.51.13,1,.13,1.54.13-.51.13-1,.26-1.54a2.69,2.69,0,0,1-.51,2.31Zm-9.75-1.92v-.26a.13.13,0,0,0-.13.13c-.13-.51-.13-.51-.38-.51v.51a1.63,1.63,0,0,0-.77.13c0,.13-.13.38-.13.51-2.18-.26-2.56-1-4.49-.13-.13-.13-.26-.13-.38-.26.26-.26.26-.26,1.15-.26V123h-.64v-.64c-1.92-.9-7.69-3.33-8.21-4.74-1.8-.9-4.62-2.44-5-3.46h-.38c-.77-1.54-2.95-2.44-3.46-3.85-2.56-1.15-6.28-5.39-7.31-7.31h-.38a18.27,18.27,0,0,1-.64-2.05c1.15.26,1.28.38,2.05,2.05,1.92,1.92,3.59,5.51,7.18,5.51,1.54,1,2.18,3.08,4.62,3.33a1.82,1.82,0,0,1,.26.77h.64v-.77c-1.41-1.15-2.69-2.31-4.1-3.46,0-.26.13-.64.13-.9a9,9,0,0,1,2.18.77c1.8,2.18,5.26,3.08,8.21,4.74.13.13.26.38.38.51,1,0,2.69-.64,3.21,1.28a7.5,7.5,0,0,0-1.67-.26c-.13.26-.13.26.13,1a1.63,1.63,0,0,0-.77.13c-.9-1.15-1.15-1.41-1.8-1.54v1.15c-.64,0-1.15-.13-1.67-.13v.51a9.34,9.34,0,0,1,2.56,2.82c1.28.13,2.56.13,3.85.26,0,.51.64.77,1.67.77,0,.13.13.38.13.51,1.67.26,3.08,1,5,1.15v.64c-1-.26-1-.26-1.15-.38v1a.77.77,0,0,1,.51-.13c.13.13.26.38.51.51-.13.13-.26.13-.26.26.51.13.9.38,1.41.51l.13.13v.51H85v-.64h-.26v.64h-.64v-.38a1.3,1.3,0,0,1-.9-.51Zm2.31.26-.13-.13c.13-.13.13-.26.26-.51a8.47,8.47,0,0,1,1.92.64c0,.13.13.38.13.51H85.68c0-.13-.13-.38-.13-.51Zm-.13.13-.13-.13.13-.13.13.13-.13.13Zm15.77-.77v-.26h.13V123Zm-54.24-.26a2.18,2.18,0,0,1-.13-.9c0,.13.26.13.38.26,0,.51,0,.51-.26.64Zm64.89-.38v-.51h.26v.51Zm-65.79-.77V121h.51a1.28,1.28,0,0,0-.51.64Zm47.7-2.82h.13c0,.38,0,.38.26.38-.13-.26-.13-.26-.13-.38l-.13-.13c.13-.13.38-.26.51-.38.26.38.26.38.51.26l.13.13c0-.13,0-.13.13-.13L95,118.4c.13-.13.26-.26.26-.38a8,8,0,0,1-.77,3.46h-.26v-.9h-.13v.64h-.51v-.51c-.9-.51-1-.64-1.28-1.15a2.5,2.5,0,0,1,1,.13,6.28,6.28,0,0,1,.38-.9Zm11,1.15.13-.13h1.15v.9a11.28,11.28,0,0,0-1.28.77v-1.54Zm-6.8-.26h1.28v.9a4,4,0,0,0-1.28.64v-1.54Zm5.64,1.54c-.13-.51-.13-1-.26-1.41H104c-.13,1.28-.13,1.28-.38,1.41Zm-6.8-.26a5.65,5.65,0,0,1-.26-1.28h.77a2.82,2.82,0,0,0-.13,1c-.13.13-.26.13-.38.26Zm9.23-.13.13-.13c.38,0,.38,0,.38.26-.13,0-.38-.13-.51-.13Zm1.15.13v-.26h.26V121Zm6.28-.26v-.38a2.57,2.57,0,0,1,1-.51v.9Zm-23.72-.9v-.13h.38v.13Zm15-.13-.13.13c-.38,0-.38,0-.38-.13Zm-6.8-.13c-.13,0-.13,0-.13.13-.38,0-.38,0-.38-.26a1,1,0,0,1,.51.13Zm3.59-.51a.13.13,0,0,0-.13-.13l.13-.13.13.13a.13.13,0,0,0-.13.13Zm-7.69-.26h-.13c0-.13,0-.13.13-.13l.13.13Zm1.15-.13-.13-.13c0-.13,0-.13.13-.13l.13.13c-.13,0-.13,0-.13.13Zm-12.05-1a1.16,1.16,0,0,1-.13-.64c.13,0,.38-.13.51-.13v.77Zm2.18,0c0-.26-.13-.51-.13-.77h.9c-.13.13-.13.38-.26.51s-.26.13-.51.26Zm10.52-.26c-.13-.51-.13-1-.26-1.41-.13-.13-.26-.13-.38-.26.26-.38.26-.38.38-1.15a3.75,3.75,0,0,0,.26,1.15h.26v-1.15h.26a5.52,5.52,0,0,1-.51,2.82Zm-3.21-.26c-.13-.38-.13-.77-.26-1.15.38-.13.64-.13,1-.26a3.55,3.55,0,0,1,.13-1.15,6.78,6.78,0,0,1,1.67-.13v.64h-.51a5.55,5.55,0,0,1-.13.64c-.9.51-1.28,1-1.92,1.41Zm-16.41-.38c.13-.26.13-.38.26-.64A5.55,5.55,0,0,0,77,116a.77.77,0,0,1-.13.51c-.26.13-.51.13-.77.26Zm2.82,0c-.13-.13-.13-.26-.26-.38.51,0,1.15-.13,1.8-.13v.51Zm2.05,0c.13-.38.13-.38.64-.51v.51Zm-19.62-.26v-.26h.26v.26Zm15.9-.51v-.64h1.15c0,.13.13.26.13.38-.38.13-.77.13-1.28.26Zm12.05,0v-.26h.26V116Zm-2.05-.26c.38-.38,2.18-3.21,2.95-2.05-.26.9-.64.51-.9,1.92-.64,0-1.41.13-2.05.13Zm4.87-.13a3,3,0,0,1,.26-1v.77a.28.28,0,0,0-.26.26Zm-6.16-1v-.13h.38v.13Zm.9,0v-.13h.38v.13Zm-2.05-.13c-.77-.9-1.15-.38-1.67-.51l-.38-.77c.51-.26.51-.26,1.8-.13.26.38.38.51.26,1.41Zm14.49,0v-1h.51c.13.26.13.64.26,1Zm-7.05-.64.13-.13v.51c0-.13-.13-.26-.13-.38Zm-4.62-.13.13.13c-.13,0-.13,0-.13-.13Zm16.8-1.8.13.13a4.39,4.39,0,0,0,2.31.77v.9c-2.18.26-2.82-.51-3.85-.9a1,1,0,0,1,.13-.51c.38-.13.9-.26,1.28-.38Zm-16.67,1.92-.13-.13.13-.13.13.13-.13.13Zm.13-.13-.13-.13a.13.13,0,0,0,.13-.13v.26Zm4.36-.13-.13.13c-.26,0-.26,0-.26-.13Zm-34.5-.26a9,9,0,0,0-.77-1.15h.51v.38c.51.26.51.26.64.77Zm35.52,0a4.82,4.82,0,0,1-.13-1.28c.51,0,.51-.26,1.54.51a1.62,1.62,0,0,0-.13.77Zm15-.26c-.26-.13-.38-.13-.51-.26s.13-.26.13-.51c.38,0,.77-.13,1.28-.13v-.9a8.19,8.19,0,0,1-.9-.26c.13-.9.38-.64,1.28-.64a3.89,3.89,0,0,1,.77,2.18c-.77.13-1.41.38-2.05.51Zm-19.62-.26c.26-.9.26-.9.38-.9v.9Zm7.31,0a10,10,0,0,1,.26-1.8h.38v1.15h.26V110.7H93.63c0-.13.13-.38.13-.51.38,0,.77-.13,1.28-.13v-.9a8.13,8.13,0,0,1-.9-.26c.13-.26.13-.51.38-.64.77.26,1.28.26,1.8,1.8.13-.13.26-.13.51-.26a10.53,10.53,0,0,1,.26,2.95Zm5.39,0c-.13-.13-.26-.26-.38-.26h.9a1,1,0,0,0-.51.26Zm-25.9-10.13h.13a3,3,0,0,1,1,.26,2.81,2.81,0,0,0-.64.38,1.9,1.9,0,0,0-.13.9,4.25,4.25,0,0,0,.77.38v.9a3.19,3.19,0,0,1,1.15-.13c.26,1,.51,2.05.77,3.21.26,0,.38.13.64.13a.77.77,0,0,1,.13-.51c1,.26,1,.26,1,.51h-1c0,.77,1.41.9,2.31.9a10.36,10.36,0,0,0,.9,2.95c-.64,0-.64,0-1.41-.64-1.8-2.31-3.72-2.82-4.87-4.36-1.15-.26-4.36-1.15-4.36-2.31.38,0,.77-.13,1-.13-.13-1-.38-.9-.9-1.28.13-.13.38-.13.51-.26a6.41,6.41,0,0,1-3.46-.64,4.93,4.93,0,0,1,2.31-.13h-.9V103a18.91,18.91,0,0,1,2.69.13c-.13,0-.13.13-.26.26a6.77,6.77,0,0,1,1.67.13c0-.26.13-.38.13-.64.26-.13.51-.13.77-.26Zm19.88,9.87v-1.15c0,.13.26.13.38.26v.9Zm-10.13-.13v-1h.51c.13.26.13.64.26,1Zm19.36-.38-.13-.13.13-.13.13.13-.13.13Zm-13.21-.13a13,13,0,0,0-2.44-1.15.77.77,0,0,1,.13-.51c1,0,2.05.38,3.72.51v.9c-.51.13-.9.13-1.41.26Zm13.34,0-.13-.13c0-.38,0-.38.26-.38,0,.13-.13.38-.13.51Zm-21.93-.51c0-.13,0-.13.13-.13a.47.47,0,0,0,.13.38c-.26,0-.26,0-.26-.26Zm14.75,0v-.13H98v.13Zm4.62,0a1.72,1.72,0,0,1-.77-.9h1.15a1.63,1.63,0,0,0,.13.77,1,1,0,0,1-.51.13ZM82.6,110.06a.13.13,0,0,0,.13.13v.9c-.13,0-.13,0-.13.13v-1.15Zm-24.75.9c-1.28-1.67-3.59-2.95-3.85-4.1h-.38a2.38,2.38,0,0,1-.26-.9,2.35,2.35,0,0,1,1.8,1.54h.64c0,.51,2.18,1.92,2.56,3.46Zm41.93-.64h.51V111h-.51v-.64Zm-44.37.38a.45.45,0,0,0-.13-.26c.13-.13.13-.13.38-.13-.13,0-.26.26-.26.38Zm31.8,0-.38-.38h.9c-.13.13-.38.26-.51.38Zm19.11-.26a.47.47,0,0,0-.38-.13c0-.26.13-.38.13-.51a2.5,2.5,0,0,1,1-.13.47.47,0,0,0,.13.38,6.28,6.28,0,0,0-.9.38Zm-23.6-.26a.13.13,0,0,1,0-.26.13.13,0,0,1,0,.26Zm24.75-.13v-.26H108v.26Zm-53-.26a.4.4,0,0,1-.13-.26h.38c-.13.13-.26.13-.26.26Zm49.37,0c-.77-.13-1.41-.38-2.05-.51v-.38a18.4,18.4,0,0,1-4.36-1.41,1.29,1.29,0,0,1,.13-.38l-.26-.26c-.13.13-.13.26-.26.38s-.38-.13-.51-.13v-.51c.38-.13.77-.13,1.15-.26V106h.51c.64,1.28,4.1,2.44,6.28,2.95.13.26.13.64.26.9Zm-20.52-.51v-.13h.51v.13Zm4.62,0c-.51-.26-.51-.26-.77-.9h1.15a1.62,1.62,0,0,0,.13.77c-.26,0-.38.13-.51.13Zm-2.31-1h.13a2.16,2.16,0,0,0,.26.64h-.38v-.64Zm-3.33.38a1.4,1.4,0,0,1-.13-.64,1.29,1.29,0,0,1,1.15-.38l.26.26a11.25,11.25,0,0,0-1.28.77Zm9.87-.26c-.13,0-.26-.13-.38-.13s.13-.38.13-.51c1-.13,1-.13,1.28.13a3.84,3.84,0,0,1-1,.51Zm-44.5-2.31c0-.13,0-.13.13-.13s.26.13,1.41,2.31c-1.41,0-1.67-1.54-1.54-2.18Zm5,2.18v-.77h.38v.77Zm33-.13a.13.13,0,0,0-.13.13c0-.13,0-.13.13-.13Zm7.69-.13v-.26h.51V108Zm-3.59-.26c-.77-.13-1.41-.26-2.05-.38v-.51c-2.18-.38-3.46-1.67-4.49-2.05a1,1,0,0,0-.26.51c-.38-.26-.38-.26-.51-.77.51-.13,1-.26,1.67-.38a1,1,0,0,0,.13.51,37.47,37.47,0,0,0,6.16,2.18c.13.26.13.64.26.9ZM103,105.7c.13.26.13.26.51.51a.13.13,0,0,1,.13.13c.38.13.77.38,1.15.51v.77a1.5,1.5,0,0,1-1.41-.64,11.23,11.23,0,0,0-2.05-.26,1.72,1.72,0,0,1-.26-1.15c.64,0,1.28.13,1.92.13Zm-50.91,1.67v-.51h.38v.51Zm62.71,0a7.33,7.33,0,0,0-.9-1,1.15,1.15,0,0,1,.64-.13,1.72,1.72,0,0,0,.77.9,1,1,0,0,0-.51.26Zm-34.11-1c.13-.26.26-.38.38-.64a1.16,1.16,0,0,0,.13.64Zm23,0a.13.13,0,0,0-.13-.13.13.13,0,1,1,.26,0,.13.13,0,0,0-.13.13Zm.13-.13a.13.13,0,0,0-.13-.13c0-.38,0-.38.26-.38,0,.13-.13.26-.13.51Zm-56-.38a.13.13,0,0,0-.13.13c-.38-.13-.64-.13-.77-.26v-.9c.51.26.38.13.9,1Zm48.73.13c-3.08-1.28-4.62-.13-6.54-.51-.26-.64-.26-.64-.13-1H93v-.26H89.52v-.51c-1.8-.26-1.8-.26-2.05-.51a10,10,0,0,1,1.8-.26,11.23,11.23,0,0,0-2.05-.26c-.13.38-.13.38-.38.51a7.17,7.17,0,0,1-1-.64c.13-.26.13-.26.51-.51a2.41,2.41,0,0,1-1.67-.38,1,1,0,0,1,.51-.26,11.71,11.71,0,0,0-1.8-.9c.13-.13.13-.26.26-.26-.13-.13-.13-.26-.26-.26a1,1,0,0,1,.64-.26,8.8,8.8,0,0,0,3.46,1.41c-.13,0-.13.13-.26.26.38,0,3.72.38,3.72,1.41-.51,0-.51,0-.51.26,2.82.51,2.82.51,2.82.64H90.16v.26h3.46c0,.26-.38.26-.38.51a7.91,7.91,0,0,1,3.85.64c-.13.26-.13.51-.26.77a1.29,1.29,0,0,0-.38.13ZM53,105.7c-.13-.13-.13-.26-.26-.26a.47.47,0,0,1,.38-.13c0,.13-.13.26-.13.38Zm25.9,0c0-.13.13-.38.13-.51.38,0,.77-.13,1.28-.13-.13.13-.13.26-.26.51-.38,0-.9.13-1.15.13Zm24.11,0-1.15-.38c1.28,0,1.28,0,1.54.26-.13,0-.26.13-.38.13Zm2.44,0c.9-1.28,1.15-2.95,1.92-4.23,0,1-.13,2.18-.13,3.33h-.38v-1.15h-.26c0,.51-.13,1.15-.13,1.67-.38.13-.64.26-1,.38Zm2.31,0c-.13-.26-.13-.51-.26-.64h.9v.64Zm-49-.9c0-.13,0-.26-.13-.26a.47.47,0,0,1,.38-.13c-.13.13-.13.26-.26.38Zm-12.7-.38a8.11,8.11,0,0,0-.26-.9c-.13-.13-.38-.13-.64-.26-.13-.38-.26-.77-.38-1.28-.13,0-.38-.13-.51-.13-.26-1.41-.9-2.18-.77-3.08.13,0,.38-.13.51-.13.13.51.26.9.38,1.41.26.13.38.13.51.26.13.38.13,1,.26,1.54.13,0,.38.13.51.13a18.71,18.71,0,0,0,.9,2.44Zm30.52,0v-.51h.26v.51Zm4.74-.26c.13-.64.13-.64.38-.9a2.79,2.79,0,0,1,.38.64,1.82,1.82,0,0,0-.77.26Zm17.06-.51c-1.41-1-.9-.9-2.31-1.15.9-.26,1.54.13,2.82.38v.64c-.13,0-.26.13-.51.13Zm-38.21-.13c0-.13-.13-.26-.13-.38.64,0,.64,0,.77.26a1.39,1.39,0,0,0-.64.13Zm3.21-.38c0-.13,0-.13.13-.13h.64v.26a1.63,1.63,0,0,0-.77-.13Zm0-.26c-.13,0-.13,0-.13.13,0-.26,0-.26.13-.13Zm12.05-.38a.13.13,0,0,0-.13.13H72a5.25,5.25,0,0,1,3.21-.9c-.13,0-.13.13-.26.26a.77.77,0,0,1,.51.13v.38Zm-21.54-4.1h-.13a.13.13,0,0,0,.13.13v-.13a7.68,7.68,0,0,1,1.8,1.8c-.13,0-.13,0-.13.13l.13.13c0-.13,0-.13.13-.13,1.41.9,1.67-.26,1.92,2.31a8.12,8.12,0,0,0-.26-.9,3.19,3.19,0,0,0-1-.13.45.45,0,0,1,.13-.26L54.9,101v-.9h-.64a8.13,8.13,0,0,0-.26-.9h-.9c0-2.05,0-2.05-.13-2.05V98h-.51c-.13-.9-.26-1.67-.38-2.56,0,.38-.13.77-.13,1.15-.26-.26-.26-.26-.26-1.54a1.63,1.63,0,0,0,.77.13c0,.38.13.9.13,1.28.51.26.77.77,1.28,1.92Zm24.62,3.72.13.13a.28.28,0,0,0-.26.26.47.47,0,0,1,.13-.38Zm3.85.26v-.26h.13v.26Zm-3.72-.13-.13-.13c0-.13,0-.13.13-.13l.13.13c-.13,0-.13,0-.13.13Zm17.06-.13v-.26h.26v.26Zm3.59-.9-.38-.38c1.15,0,1.15,0,1.41.26a2.82,2.82,0,0,0-1,.13ZM78.11,101c.26-.26.26-.26.64-.26-.26,0-.38.13-.64.26ZM63.62,85.57a.13.13,0,0,1,.13-.13,1.4,1.4,0,0,1,.13-.64h.64c-.13-.38-.13-.9-.26-1.28a.13.13,0,0,1,.13-.13h-.26c-.13,0-.38-.13-.51-.13v2.18h-.51V84.16H63a7.88,7.88,0,0,0-.13,1.8,2.25,2.25,0,0,0-.64-.51.13.13,0,0,1,.13-.13,7.61,7.61,0,0,1,1.8-4v-4.1a8.23,8.23,0,0,0-.9.26c.51.51-.38,1.92-.64,2.56l-.13-.13c-.13,0-.13,0-.13.13h.13v.38H62c0,1.41-.13,2.95-.13,4.36h.38v.38a.13.13,0,0,0-.13.13c-.51.51,0,1,.13,2.18a14.41,14.41,0,0,1-2.82-2.18c.38-1.41,0-5.13-.51-5.9-1.15.64-1.67,1.15-2.56,1.54v-.51c.13,0,.26-.13.38-.13-.13-.26-.13-.51-.26-.77-.13.13-.26.13-.26.26a2.11,2.11,0,0,1-1-2.31h.51V76.08c-.26.13-.38.13-.51.26a6.28,6.28,0,0,0-.38.9,2.82,2.82,0,0,0-1,.13c0-.26-.13-.51-.13-.77.26-.13.64-.13.9-.26V74.8h1.8A4.45,4.45,0,0,0,57.08,76a5,5,0,0,1-.51,1.67c.26.13.9.13,1.15,1a2.74,2.74,0,0,0,1.8-.13c-.13-.13-.38-.13-.51-.26,1.41-.9,1-2.05,1-3.21-.9-1-.51-1.92-.64-2.56a1.77,1.77,0,0,1-.51-.38c.13-.26.26-.38.38-.64h1.92c.38.77,1.67,3.08,1.28,4.74-.64.13-.64.13-.64.38h.9a1,1,0,0,0,.13.51c0-.26.13-.38.13-.51.38-.13.77-.13,1.15-.26V75.18h.38a36,36,0,0,1-.13-3.72c-.51,0-.51,0-.51-.26h1.8c-.13,1.54-.64,1.67.51,4h-.13a.13.13,0,0,0,.13.13v-.13a8.12,8.12,0,0,0,.9.26V76c-.77,0-.77,0-.77.13h.9c0,.26,0,.26-.38.38.13.38.13.38,0,1.28-.26,0-.38-.13-.64-.13,0-.9,0-.9-.26-1.15-.13,0-.38.13-.51.13a1.63,1.63,0,0,0-.13.77c.64.51.9.51,1.15,1.92.77-.26,1.41-.64,2.18-.9-.13.38-.13.77-.26,1.28-.13,0-.26.13-.38.13v.38a10.71,10.71,0,0,0,3.46-.13h.13a9.77,9.77,0,0,0-.26,3.46l-.13.13a.13.13,0,0,0,.26,0c.26-.13.51-.13.77-.26.51,3.21,4.87,7.57,4.87,11.16-1.67,1.41-.13,3.72-3.72,4.1.13.13.13.26.26.38.51-.13,1.15-.26,1.8-.38.13-.13.13-.26.26-.38A3.8,3.8,0,0,1,77,98v.13c-2.56,1.54-3.85,2.18-6.54,1.28v-.51a7.5,7.5,0,0,1,1.67-.26A4.26,4.26,0,0,1,70.16,97a6.7,6.7,0,0,0-2.05-.77L68,96.09a2.14,2.14,0,0,0,1.54-.77,20.5,20.5,0,0,1-4.23-4.74c1-1.15.9-2.05,0-2.56-.13.26-.26.64-.38.9l-.13-.13c-.26,0-.26,0-.13.13l.13.13v.38h-.51a27.91,27.91,0,0,0-.13,3.33h.13v-.64h.51c0,.51.64,1,.9,2.18-.51-.13-.51-.13-1.28-1.15,0,2.05.38,3.08,2.69,4.36,0,.26.13.51.13.77h-.9v.38c-.64,0-.64.26,1.67,0,0,.13.13.26.13.51.51,0,1,.13,1.41.13v1a3.26,3.26,0,0,1-1.54.38c-.51-1.15-2.82-1.92-3.59-2.44a8.17,8.17,0,0,0-.26.9,2.19,2.19,0,0,1-.64-2.05,11.84,11.84,0,0,1-1.8-2.56c0-3.21-.51-5.77,1.92-7.18v-1.8Zm22.7,15.13c.26-.13.51-.38.77-.51s.38.13.64.26c-.26.13-.26.13-1.41.26Zm-35.27-.13c-.64-1.28-.9-1.67-.9-2.31h.51a12.19,12.19,0,0,1,.9,2.31Zm15.13,0v-.26h.38v.26Zm-.51-.26v-.26h.26v.26Zm12.7,0V99.8h.26v.51Zm30.91-4a.13.13,0,0,0,.13.13c-.51,2.44-.51,2.44-.77,2.44,0-.51,0-.51-.26-.51v.51H108c.26-1.92.26-1.92.38-2.56Zm.77,1.92c-.51-.77-.38-1-.26-1.28a8.92,8.92,0,0,1,4.62-1.41c0-.26.13-.38.13-.51,1.15-.38,1.8-.9,2.69-.9,0,.13-.13.26-.13.51-.51.13-.9.13-1.15.9-.38.13-.9.26-1.41.38v.38c-1.67.38-3.59.9-4.49,1.92Zm-45-.13L64.9,98c0-.13,0-.13.13-.13l.13.13c-.13,0-.13,0-.13.13ZM77.08,98a.13.13,0,0,0-.13-.13c-.13-.13-.38-.13-.64-.26.26-.26.26-.26.9-.26.13,0,.13.26.26.38-.13.13-.26.13-.38.26Zm15,0a10.07,10.07,0,0,1-.26-1.8h.38c0-.51,0-.51.26-.51v.51H93V97.5h-.51V98Zm-26.42-.13a.13.13,0,1,1,0-.26.13.13,0,0,1,0,.26Zm23.47-16a.13.13,0,1,0,.13-.13c-.13-1.92-.13-3.85-.26-5.77h-.64v-.51H89v-.26c-.64,0-.64,0-.64-.13H89c0-1.54.38-3.21.26-4.36a5.46,5.46,0,0,1,1.41.26c0-2.69,0-5.51.13-8.21.26-.26.13-1.15.13-1.41a1.68,1.68,0,0,0,1.28.38,6.25,6.25,0,0,1-.13-1.54c.51-.38,1-.64,1.54-1a5.44,5.44,0,0,1,5.64-4.23c.13.26.38.38.51.77.77-.38.77-.38.9-.9a2.68,2.68,0,0,0-.77-.51V53.9c0-.13.13-.13.26-.26a3.2,3.2,0,0,0,3.21-.13c1.41.26,1.41.26,6,.38a1.91,1.91,0,0,0,.13.77.13.13,0,0,0-.13.13v.51c-2.31-1.15-5.13-1.28-6.54-.13a1,1,0,0,0,.13.51,4.36,4.36,0,0,1,1.28-.13,1.72,1.72,0,0,1,.51,1.54c1.28.51,2.44,1.41,3.21,1.67.13.51.13.51-.38,1.54-.26,0-.38.13-.51.13v.64c-.26,0-.38.13-.51.13.38.38.38.38,1.15.64,0-.77,0-.77.26-.77v.51a8.23,8.23,0,0,0,.9.26c-.38.9-.38.9-1.28,1.28v.77c-1.92,0-5.51.51-6-1l-2.95-.38c0-.13.13-.38.13-.51-1.28-.13-1,.26-1.67,1a.13.13,0,0,0-.13.13,1.62,1.62,0,0,0-.13.77h.26v-.64a.13.13,0,0,1,.13-.13h.26c0,.51,0,.51.26.51a4.26,4.26,0,0,1,.38-.77c.13.26.13.26-.38,2.31h-.64c-.64,1.54-1.41,2.05-2.82,1.92v1.28c.26,0,.26,0,.38-.51h1c.13.38.13.64.26,1-.26,0-.38.13-.51.13-.13,1.67-.13,1.67.13,2.05h.64a.4.4,0,0,0,.13.26,3.46,3.46,0,0,0-.9,1l-.13.13v.77h.13v-.64c0-.13,0-.13.13-.13h.38c0,.51,0,.51.26.51.13-.64.13-.64.51-.9,0,.64-.26.9-.51,2.44h-.77v1.8h.51c.13.38-.13.9.9,1.15A3.55,3.55,0,0,0,97,78.65c.51.38,1.41.13,2.44.26,0,.26.13.51.13.9h.9v-.51h.77a.77.77,0,0,0,.13.51c.64,0,.64,0,1.41-.51v.9H103v-.9c.13.13.38.13.51.26l.13.13a26.27,26.27,0,0,0-.64,3.08h-.26V81.21a4.33,4.33,0,0,0-1.54-.77,2.82,2.82,0,0,0,.13,1c.13,0,.38.13.51.13v.64h-1.41a6.28,6.28,0,0,0-.38-.9,9.09,9.09,0,0,0-1.8-.13c-.38.38-.38.38-.38,1.15a15.5,15.5,0,0,1,2.44-.13l.13.13c-.26.51-.9.77-.77,1.54.77.13,1.41.13,2.18.26-.64,1.67-1.67,2.56-1.41,4.74h.51l.38-.38c.13.26.13.64.26,1,.26,0,.26-.38.51-.38a10,10,0,0,0-.26,2.05c-.13-.13-.38-.13-.51-.26a2.18,2.18,0,0,1-.13-.9,24.68,24.68,0,0,0-3.72.64c0-.26.13-.51.13-.77l1.54-.38A6.86,6.86,0,0,0,99,87.62a2.68,2.68,0,0,0,.77-.51V86.6a20,20,0,0,0-4.62-.26,1.68,1.68,0,0,1-.38-2.18,6.44,6.44,0,0,0-1.54-.26v-.64H93a1.39,1.39,0,0,0,.13.64l.13.13v.38h.38a5.63,5.63,0,0,0,.26,1.28h.38c.13.26.26.64.38.9s.38.13.64.26v.64h.38v1a.47.47,0,0,1,.38.13c-.13,1,.64,1.67-.51,3.21A3.55,3.55,0,0,0,95.42,93c-.26,0-.51.13-.9.13,0,.26-.13.38-.13.64.64.51.64.51.9,1-.38.13-.77.13-1,.26v-.77a2.18,2.18,0,0,0-.9-.13h.13c.26-.64.26-.64,0-1.15h-.38a1.29,1.29,0,0,0-.13.38h.38V94a.13.13,0,0,0-.13.13,3.55,3.55,0,0,0-1.15.13v-.38c-.51-.13-.51-.13-.9-.77-.38.51-1,1.67.38,2.05,0,.26-.13.51-.13.77l-.13-.13a5.58,5.58,0,0,0-.9-.51,5.28,5.28,0,0,1-2.69,1.28c.13.38.13.64.26,1h-.77c-.64-.64-.77-.9-.64-1.15A2.68,2.68,0,0,1,85.8,96v-.51c.51-.26.51-.26.64-.64.26.26.26.26,1.54.38a2.53,2.53,0,0,1-2.05-2.44H83.88a2.24,2.24,0,0,0-1.54-1.54c0-3.59-1.67-3.33,1.8-5.77.51,0,1-.13,1.54-.13.26-2.44,1.28-4.62,1.92-6.67.26.13.38.26.64.38-.13.51-.13,1-.26,1.54a11.57,11.57,0,0,1,1.15,1.28ZM65.42,97.62a.13.13,0,1,1,0-.26.13.13,0,0,1,0,.26Zm-15.9-.13a6.77,6.77,0,0,1-.9-2.31H49c.13.38.13.64.26,1h.51a4.41,4.41,0,0,0,.13,1.15.47.47,0,0,0-.38.13Zm46-.64.13.13c-.26,0-.38,0-.38.13v.38h-.51c-.13-.13-.13-.38-.26-.64.51-.26.51-.26.51-.51h-.51c.13-.38.13-.38.38-.51.26.13.38.26.64.38v.64Zm-30.39.51h0v-.13l.13.13Zm28.08,0v-.26h.13v.26ZM95.68,97l-.13-.13a.13.13,0,0,1,.13-.13.13.13,0,0,0,.13.13c-.13,0-.13,0-.13.13Zm-4.49-1a.13.13,0,0,1,.13.13c-.64.13-.38.26-.64.77h-.77v-.64c.51-.13.9-.13,1.28-.26Zm4.62.9a.13.13,0,0,1-.13-.13c.13,0,.26-.13.51-.13,0,.26,0,.26-.38.26Zm1.28-.64a.13.13,0,0,0,0,.26.13.13,0,0,1,.13-.13h.51v.51c-.9-.13-1.28-.26-1.54-.51.26-.13.51,0,.9-.13Zm2.44.64v-.51H98.24V95.7c.51-.13,1.15-.13,1.8-.26v.77h.26v-1a2.12,2.12,0,0,1,0,1.54c-.26,0-.51.13-.77.13Zm-17.7-.26v-.26h.51v.26Zm27.57-.13a.13.13,0,0,1-.13-.13h.13v.13Zm-41.55-.26.13.13a3.91,3.91,0,0,1-1.8-.77V94.8c.51.13,1.15,0,1.67,1.41Zm41.55.13h0c0-.13.13,0,.38,0-.13-.13-.26,0-.38,0ZM68,96.21h-.13c0-.13,0-.13.13-.13l.13.13ZM77.21,96v-.9h.51c.13.13.13.38.26.77-.26,0-.51.13-.77.13Zm4.1-.38a.13.13,0,0,1,.13-.13.77.77,0,0,0,.13.51c-.26,0-.26,0-.26-.38Zm0-.26v.13c-.13-.13-.13-.13,0-.13Zm14,.13c.13-.77.9-1,1.54-1.28v.9a2.53,2.53,0,0,1,.9.26c-.9,0-1.67.13-2.44.13Zm-44.37-.9c-.13-.51-.13-1-.26-1.54.13-.13.26-.13.38-.26.13.51.13.51-.13,1.8Zm30,0c0-.26,0-.26-.51-.26-.13-.51-.13-.51.13-.64a.13.13,0,0,0,.13.13.47.47,0,0,0,.13.38v-.51a.13.13,0,0,1-.13-.13c-.13-.77-.13-.77.13-1.28a2,2,0,0,1,.77,1.54c-.13,0-.26.13-.38.13v.64Zm28.21-.64c.13-.26.13-.26.9-.51v.51Zm2.31,0a1.77,1.77,0,0,1-.51-.38c.26-.26.26-.26,1.15-.38v-.64h1.8c-.38.9-1.8,1.15-2.44,1.41Zm-30.78-.13a.13.13,0,1,1,0-.26.13.13,0,0,1,0,.26Zm-33-.13c-1.41-1.67-1.8-1.92-1.67-3.72.13,0,.26-.13.51-.13A3.75,3.75,0,0,0,46.82,91H48.1c-.51,1-.13,1.15,0,2.69ZM97.35,93v-.51h.38V93Zm-46.68-.51v-.64h.26v.64ZM78,88.78a.13.13,0,0,1,.13-.13c.64,1,1.67,1.67,1.92,3.46-.13,0-.38.13-.51.13A33.12,33.12,0,0,0,78,88.78Zm32.44,3.33a2.5,2.5,0,0,1,.13-.9,2.18,2.18,0,0,0-.13.9Zm-18-.13-.13-.13.13-.13.13.13-.13.13ZM43.36,90.06c.13-.9.13-.9.26-1.15.26.26.26.26.38,1.15Zm-1.41-.51c0-.38-.13-.77-.13-1s.13-.26.26-.26c0,.38-.13.77-.13,1.28Zm69.5-.38V88.9h.13v.26ZM64.77,89l-.13-.13c0-.13,0-.13.13-.13l.13.13c-.13,0-.13,0-.13.13ZM46.95,88.9a1.4,1.4,0,0,1-.13-.64h.38c-.13.13-.13.38-.26.64Zm31-.38a.13.13,0,0,0-.13.13c0-.13,0-.13.13-.13Zm33.47.13v-.13h.13v.13Zm-81.17-.38V88a.47.47,0,0,1,.38.13.47.47,0,0,0-.38.13ZM43.1,88v-.51h.26V88Zm2.95,0c-2.05-2.69-2.44-7.69-2.69-10.52-.13-.13-.38-.13-.51-.26-.38-1.67,1-3.46-.38-4.74,0-.64.13-1.28.13-2.05.26,0,.51.13.77.13,0,4.36,1.92,8.59,2.44,13.34.13.13.38.13.51.26.13,2.05.38,2.44.51,3.85Zm66-.51-.13-.13c0-.13,0-.13.13-.13l.13.13c-.13,0-.13,0-.13.13Zm.13-.13-.13-.13c0-.38,0-.38.26-.38-.13.13-.13.26-.13.51Zm-71.17-.26c-.38-1.67-.77-3.33-1-4.87a1.78,1.78,0,0,1,.38-.51l.38.77h1.28a9.12,9.12,0,0,0-.13,2.05,8.8,8.8,0,0,0,1,.38c0,.26.13.38.13.51-1.41.13-1.15.26-1.54,1.41-.13.13-.38.13-.51.26Zm21.54-.51.13.13c-.26,0-.26,0-.13-.13Zm.13.13-.13-.13h.26c-.13,0-.13,0-.13.13Zm-25-1.92v-.38h.38v.38ZM113,84.42V83.9h.26v.51Zm-10.9-.26c0-.77,0-.77.26-.9,0,.64,0,.64-.26.9ZM93.24,84l-.13-.13c0-.13,0-.13.13-.13V84Zm20-.64v-.13h.26v.13Zm.38-.51a.13.13,0,0,0-.13-.13l.13-.13a.13.13,0,0,0,.13.13c-.13,0-.13,0-.13.13Zm-13.21-.51-.13-.13h.26l-.13.13ZM89.27,82a.13.13,0,0,0-.13-.13.13.13,0,0,1,.26,0,.13.13,0,0,0-.13.13Zm-35-.13v-.26h.26v.26Zm-24-1.15v-.26c.13,0,.26.13.38.13-.13,0-.26.13-.38.13Zm9.23,0a5.46,5.46,0,0,1-.26-1.41,13.44,13.44,0,0,1,1.41,1c-.26.26-.26.26-1.15.38Zm10.9-.26c-.13-.26-.26-.38-.26-.64a2.57,2.57,0,0,1,.77.26,1.77,1.77,0,0,0-.51.38Zm63.22-.26a3.74,3.74,0,0,1,.26-1.15,3.75,3.75,0,0,0,.26,1.15Zm-51.17-.13h-.13c0-.13,0-.13.13-.13l.13.13Zm9.1,0h-.13a.13.13,0,0,1,.13-.13l.13.13Zm-2.31,0A4.47,4.47,0,0,1,70,78.9c-.38-.26-.64-.38-1-.64.26-.26.26-.26,2.31-.26.13.38.13.77.26,1-.38,0-.77.13-1.15.13l.26.26a2.06,2.06,0,0,1-1.41.64Zm44,0v-.51h.26v.51Zm-9.62-.38-.13-.13.13-.13.13.13-.13.13Zm-51.55-.13V79c.13,0,.13.13.38.13-.26.13-.26.26-.38.38Zm51.68,0-.13-.13V78.9h.26a5.55,5.55,0,0,0-.13.64ZM78,79.41a.13.13,0,1,1,0-.26.13.13,0,0,1,0,.26ZM50.15,78.9v-.77h.51v.77Zm53.47-.26.38-2.31c-.13,2.18-.13,2.18-.38,2.31Zm-36.55-.26v-.26h.13v.26Zm-26.93-.26a11.72,11.72,0,0,1-1-1.67c.26-.51.26-.51.51-.64s.26.13.51.26a11.53,11.53,0,0,0,.51,2.05ZM52.08,78a1.77,1.77,0,0,1,0-1.15c.13.51.26.51,0,1.15Zm49.37-6.41a.13.13,0,0,1,.13.13v.38c-.13,0-.26.13-.38.13.13.38.26.77.38,1.28.26,0,.64.13,1,.13a2771512.85,2771512.85,0,0,1,.26.26L103,74l.13.13v.13a5.12,5.12,0,0,1,.51,2.31,4.83,4.83,0,0,0-2.05-.51c0-1.54-1.28-2.69-1.54-3.72-.38,0-.64-.13-.9-.13A16.54,16.54,0,0,1,99,69.28h.38c0,1.15.26,1.41,1.41,2.44.26,0,.38-.13.64-.13ZM49.51,76.08V73.26c0,.26.64,2.56,0,2.82Zm3.21,0v-1h.38v1Zm21.8-.38v-.9h.26v.9ZM105,75.18c-.26-.13-.38-.26-.51-.26h1c-.26.13-.38.13-.51.26Zm-4.36,26.55c.26-.51,2.18-3.33,2.82-2.18-.26.9-.64.51-.77,1.92a10,10,0,0,0-2.05.26Zm4.1-4a20.34,20.34,0,0,0-2.56-1.15c0-.13.13-.26.13-.51,1,0,2.18.38,3.72.51v.9c-.51.13-.9.13-1.28.26Zm-3.46-2.44c-.51-.38-.51-.38-.64-1h1.15v.77c-.13.13-.38.13-.51.26ZM95.68,88.9c-.13-.64-.13-1.28-.26-1.92h.51c0-.38,0-.38.26-.38V87h.38v1.41h-.38v.51Zm3.72-1.15-.13-.13c.13,0,.38-.13.51-.13,0,.26,0,.26-.38.26Zm-.51-1.41c.26-.77.9-1,1.54-1.41v1c.77,0,.77,0,1,.26-.9,0-1.8.13-2.56.13Zm5.39,6.16c.38-.38,2.18-3.21,2.95-2.05-.26.9-.64.51-.9,1.92-.64,0-1.41.13-2.05.13Zm4.1-3.85a13,13,0,0,0-2.44-1.15.77.77,0,0,1,.13-.51c1,0,2.05.38,3.72.51v.9c-.51.13-.9.13-1.41.26ZM105,86.08c-.51-.26-.51-.26-.77-.9h1.15a1.63,1.63,0,0,0,.13.77c-.26,0-.38.13-.51.13Zm-6-7.69c-.13-.51-.13-1.15-.26-1.8h.51c0-.38,0-.38.26-.38v.38h.38V78h-.38v.38Zm3.72-1a.13.13,0,0,0-.13-.13.77.77,0,0,1,.51-.13c0,.26,0,.26-.38.26ZM102.22,76c.26-.77.9-1,1.54-1.41v1c.64,0,.64,0,.9.26-.77,0-1.67.13-2.44.13Zm5.39,6.16c.26-.51,2.18-3.33,2.95-2.05-.38.77-.64.51-.9,1.8-.77.13-1.41.13-2.05.26Zm4.1-3.85a13,13,0,0,0-2.44-1.15.77.77,0,0,1,.13-.51c1,0,2.05.38,3.72.51V78c-.51.13-1,.13-1.41.26Zm-3.33-2.56a1.72,1.72,0,0,1-.77-.9h1.15a1.62,1.62,0,0,0,.13.77c-.26,0-.38.13-.51.13Zm.26,70.27c0-.13.13-.13.13-.26a3.64,3.64,0,0,0,2.18-.9l6.54-1.54c.13-.38.13-.64.26-1,.38-.13.9-.26,1.41-.38v-.38c1-.13,3.72-1.28,4.74-1V141c-2.31.38-4.62,2.05-6.28,3.21a33.77,33.77,0,0,1-9,1.8Zm21.93-5.51.13.13a2.81,2.81,0,0,0-.64.38v-.51Zm.13.13-.13-.13h.26l-.13.13Zm.13-.13h-.13c.13-.26.13-.64.26-.9h.64c-.13.38-.26.77-.77.9Zm-11.67-.9a1,1,0,0,1-.13-.64c.64-.13,1.15-.13,1.67-.26,0,.26-.13.38-.13.64-.51.13-1,.13-1.41.26Zm13.21-1c0-.26,0-.38.13-.51.51-.13.51-.13.77.13-.26.26-.26.26-.9.38Zm-4.74-.9v-.77c.13.13.26.13.51.26,0,.13-.13.26-.13.51Zm2.05-1.67.13.13c-.13.26-.13.51-.26.77-.9-.13-.9-.13-1.28-.38a6.25,6.25,0,0,0,1.41-.51Zm.13.13-.13-.13.13-.13a.13.13,0,0,1,0,.26Zm.13-.13a.13.13,0,0,1-.13-.13c.77-.38.77-.38,1.15-.38.13.13.13.38.26.51Zm10.39-5v-.64h.38a2.81,2.81,0,0,1-.38.64Zm1.54-.64c0-.26.13-.38.13-.51a1.16,1.16,0,0,1,.64-.13c-.13,0-.13.26-.26.38s-.38.13-.51.26Zm4.36-2.82c-.13-.64-.13-1.28-.26-2.05.13.13.26.13.51.26-.13,1.8-.13,1.8-.26,1.8Zm-29.88-.9v-.38h.26v.38Zm.77-.38c-.13-.13-.38-.13-.51-.26.26-.64.51-1.41,1.28-1.15v.9c-.26.13-.51.38-.77.51Zm17.18-1v.13h-.64a3.4,3.4,0,0,0,.64-.77v.64ZM123,125.07v-.77h.26v.77Zm31.67,0c0-1.8,1.67-2.44,2.69-3.59.13-.26.77-2.31,1.67-1.8a16.29,16.29,0,0,0-.51,1.92c-1.28.26-1.28.77-1.8,1.8h-.51c-.13.38-.26.9-.38,1.28-.38.13-.9.26-1.15.38Zm-22.31-.64v-.13c.13.51.13.51,0,.51v-.38Zm-10.52.13a1.93,1.93,0,0,1-.26-1.8c.13-.13.26-.13.51-.26,0,.64.26,1.54-.26,2.05Zm-4.36-.26v-.13H118v.13Zm14.88,0h-.13a.47.47,0,0,1-.13-.38c.26,0,.26,0,.26.38Zm-13.72-.13c.13-1.41.13-1.41.38-1.67-.13.64-.26,1.15-.38,1.67Zm10.26,0c-.13-.13-.26-.13-.38-.26v-.51h.9v.77Zm25.39-4.1.13.13a2.41,2.41,0,0,0-.26,1c-1,.51-2.05,3.08-3.21,2.82v-1c.77-.9,2.18-2.69,3.33-2.95Zm-37.7,3.33V123h.26v.38Zm6.41-.64v-.26h.26v.26Zm2.05-.26h-.13c-.77-.13-.77-.13-.77-.38h.9v.38Zm.9,0c-1.54-1.8.64-1.92,2.05-2.31.9-1,.9-.77,2.31-1,.38-1,3.33-2.44,4.62-3.21.26-2.05,4.62-5.64,6.67-6.67a.45.45,0,0,1,.13.26c-1,.77-.77.38-1,1.41-.13,0-.26.13-.51.13-.51,1.41-3.08,2.44-3.59,4-1.8.38-1.92,2.69-3.59,3.72v.38c-.9.38-1.67.77-2.44,1.15v.38h-3.21c-.13.26-.13.38-.26.51.13.13.26.13.51.26-1,.64-1,.38-1.67,1Zm24.36-.64a8.64,8.64,0,0,1,.9-1.41c.13,0,.26,0,.26.13v.64a5.2,5.2,0,0,0-1.15.64Zm10.9-.26v-.38c.13,0,.38.13.51.13-.13.13-.38.13-.51.26Zm.9-.38v-.51h.51v.51ZM131.46,121v-.26h.38V121Zm.9,0v-.26h.13V121Zm22.06-.77-.13-.13a.13.13,0,0,1,.13-.13.13.13,0,0,0,.13.13c-.13,0-.13,0-.13.13Zm.13-.13a.13.13,0,0,1-.13-.13c.13-.38.13-.38.64-.51-.13.51-.13.51-.51.64Zm9.1-.9v.13a5.56,5.56,0,0,0-.13.64c-.26,0-.64.13-.9.13.13-1,.26-.77,1-.9Zm-8.34.26v-.26h.38v.26Zm8.34-.13V119a.13.13,0,0,1,.13.13.13.13,0,0,0-.13.13Zm-4-.13a1.63,1.63,0,0,1-.13-.77c.13,0,.38-.13.51-.13-.13.64-.13.64-.38.9Zm4.1,0a.13.13,0,0,0-.13-.13c.13-.13.26-.38.38-.51a5.55,5.55,0,0,1,.13.64Zm-7.57-.9v-.51h.64v.51Zm8.34,0c0-1.54.38-1.41.77-2.69,1.41-.77,1-2.56,2.31-2.95.26-2.05,2.31-3.46,2.69-5.51.13,0,.38-.13.51-.13.38-2.31,1.92-4.1,2.18-6.28.13,0,.38.13.51.13.13,1.92-2.31,8.46-4.23,9.36-.26,1.92-2.95,6.54-4.74,8.08Zm-3.59-.64c-.26-1,.38-.9.77-.9-.13.13-.13.38-.26.64s-.38.13-.51.26Zm.77-1.15v-.26h.13v.26ZM158,115.32a2.51,2.51,0,0,1-.13-.9c1.28-1,2.31-2.69,3.46-3.33l.26.26a10.59,10.59,0,0,0-1.8,2.82c-.38,0-.64.13-.9.13a1.77,1.77,0,0,1-.38.51c.64.26.64.26.64.51Zm-26.42-2.82a5.56,5.56,0,0,1-.13-.64h.9v.51a1.62,1.62,0,0,1-.77.13Zm1.41-.9v-.51h.51c0,.26.13.38.13.51Zm31.55,0V111h.51c-.13.26-.38.38-.51.64Zm.77-1.15c.13-.9.13-.9.26-1.15.26.26.26.26.26,1-.26,0-.38.13-.51.13Zm-31-.38v-.51c.51-.13.51-.13.77.13l-.77.38Zm32.19-1.8c-.26-.38-.26-.38-.26-1.54.64-.64.64-.64,1.41-.77a4.4,4.4,0,0,1-1.15,2.31Zm-23.72-.77a1.16,1.16,0,0,1,.13-.64c0,.13.13.26.26.38-.13,0-.26.13-.38.26Zm-25.26-1.8v-.38a3.75,3.75,0,0,1,1.15-.26c0,.13-.13.26-.13.51-.38,0-.64.13-1,.13Zm50.53,0c-.13-.26-.13-.51-.26-.64h.77a1.28,1.28,0,0,0-.51.64Zm-49.11-.9a.77.77,0,0,0,.13-.51c1.54-.26,2.31-1.54,4.23-1.67-.51,1.28-2.05,1.28-2.82,1.54,0,.13-.13.26-.13.51-.51,0-1,.13-1.41.13Zm27.57-2.44a14.3,14.3,0,0,1,2.31-4.87c.38.64-.51,2.69-.64,3.72a18.77,18.77,0,0,0-1.67,1.15Zm23.21-.51a5.75,5.75,0,0,1-.13-1.41,1.7,1.7,0,0,0,.77-1.28H171a16.33,16.33,0,0,1-1.15,2.56.13.13,0,0,0-.13.13Zm-20.26-.38V101h.38v.51ZM126.84,99.8A5.2,5.2,0,0,1,130,96.85c-.51,1.28-2.18,2.31-3.21,2.95Zm46.93,0c.26-3.33,2.44-6.67,2.31-9.87-1.54-1-.77-1.41-.38-2.31a2,2,0,0,0,.9,1.67,11.11,11.11,0,0,1,.9-1.28c0,3.85-1.92,7.82-3.33,11.54-.13.13-.26.13-.38.26Zm-23.47-.26V98.14a6.23,6.23,0,0,1,.9-.38c-.13.64-.38,1.28-.51,1.8ZM137.74,98v-.26h.51V98Zm-4.49-1.15a2.13,2.13,0,0,1,1.54-2.56,7,7,0,0,1-.77,2.44c-.26,0-.51.13-.77.13Zm-7.57-1.41v-.38h.77v.38Zm-5-.38c-.26-.13-.51-.13-.64-.26,0-.9.77-.9.9-1.67h.9a1.82,1.82,0,0,1-1.15,1.92Zm5.9-.26c.13-.51.13-.51.38-.64,0,.13.13.26.13.51-.13,0-.38.13-.51.13Zm2.56,0v-.9h.38v.9Zm2.31-.26c.26-.64.9-1.28,1-1.8H133v.64h-.51c0,.38-.13.77-.13,1.15Zm-13.21-.38a1.82,1.82,0,0,1-.26-.77h.64v.77Zm16.8,0v-.77c.38.13.38.13.51.51-.13,0-.26.13-.51.26Zm-5.26-1V93H130v.13Zm19.62,0c0-1.28,0-1.28.26-1.54.26.26.26.26.26,1.41-.26,0-.38.13-.51.13Zm-31-.9c-.13-.26-.13-.26.13-.64.13.13.13.26.26.38-.13,0-.26.13-.38.26Zm15,0c.26-.51.64-1,.9-1.54h1v.64c-.38.77-1.28.77-1.92.9Zm41.29,0c0-1.28-.13-1.41.13-2.05,0,1.92,0,1.92-.13,2.05Zm-23.72-.64c-.77-1.54-.9-1-.9-2.44h.9c.13.38.13.9.26,1.41a.67.67,0,0,0,.51.26v.64c-.26,0-.51.13-.77.13Zm-34.62-.26c.51-.51.9-.64,1.28-1.28a2.8,2.8,0,0,1,.38.64,14.42,14.42,0,0,0-1.67.64Zm3.46,0c0-1.92,1.92-2.82,3.46-3.85,0,1.15-2.44,3.33-3.46,3.85Zm5.26-.9c1-1,.51-2.31,2.05-2.31a.77.77,0,0,0,.13.51,6.74,6.74,0,0,1-2.18,1.8Zm-7.57-1.54a.45.45,0,0,0-.13-.26,1,1,0,0,1,.64-.13c-.13.13-.38.26-.51.38Zm23.72,0a5.14,5.14,0,0,1-.38-2.44c1.8-2.31,1.54,1,.38,2.44Zm10-.38v-.77h.26v.77Zm-36.42-.64a.13.13,0,0,0-.13.13c0-.26,0-.26.13-.13Zm12.82-4.36a.13.13,0,0,1,.13-.13h.51c.51,1.54.64,1.67-.26,3.72l-1.15.38a8.06,8.06,0,0,0,.77-4Zm49.24,3.85c0-.26-.13-.51-.13-.77.13,0,.26.13.51.13,0,.26.13.38.13.64Zm-54.5-1.15a1.63,1.63,0,0,1,.13-.77c.13,0,.26-.13.51-.13v.9Zm13.34,0c.38-1.8,0-1.8,1.41-2.05v.64c-.13,0-.38.13-.51.13-.13.38-.13.77-.26,1.28Zm42.83-11.16v1.28h-.26V78.9h.26v.38a21.79,21.79,0,0,0-1.92,6.16.4.4,0,0,0-.26-.13v-4c1.15-2.31.51-4.62,1.28-6.54h-.51a5.56,5.56,0,0,0-.13.64c-.26-.13-.38-.13-.51-.26a2.5,2.5,0,0,1-.13-.9l.77-.38V71.59h.51c0,.9.13,1.92.13,2.95h.51c.13.13.13.26.26.51ZM121.33,84.8v-.38h.26v.38Zm4.62-.26a2.18,2.18,0,0,1-.13-.9c.26-.13.38-.13.64-.26a2.83,2.83,0,0,0-.13,1,.47.47,0,0,0-.38.13Zm-2.56-.38V82.49h1.41v-.9h.77c0,.9-.64,1.28-1,2.31a3.75,3.75,0,0,0-1.15.26Zm5.77,0v-.77h.38l-.38.77Zm21.54,0c.26-1,.38-2.05.64-2.95.13.64.51,1.92.13,2.69-.26.13-.51.13-.77.26Zm21.42-.51v-.38h.51v.38Zm-44.75-.26c0-.13,0-.13.13-.13l.13.13h-.26Zm11.54,0c-.9-.9-.38-4.23-.38-5h.64c0,1.67,0,3.21.13,4.87-.13,0-.26.13-.38.13Zm-11.54-.26c-.13,0-.13,0-.13.13h-.64v-.77h1c-.13.26-.26.38-.26.64Zm14.75.13c0-.26.13-.38.13-.51.26-.13.38-.13.51-.26v.77ZM121.2,83a10.9,10.9,0,0,1,.77-2.18c1.54-.64,1.41-1.28,1.41-2.82a4.5,4.5,0,0,0,1-.64c.26,2.05.26,2.05.13,2.69a1,1,0,0,0-.51.13l-.38,1.15c-.38.13-.9.13-1.41.26-.13.38-.38.77-.51,1.15-.26.13-.38.13-.51.26Zm8.59,0c0-.26.13-.38.13-.51.26-.13.38-.13.64-.26V83Zm-1.15-1.41c0-.38-.13-.77-.13-1.15.51.13,1.15.13,1.8.26v.77c-.51,0-1.15.13-1.67.13Zm-2.69-.38c-.38-1.92.64-5.13.9-6.41H128a20.44,20.44,0,0,0-1.54,6.41Zm28.85-.77c-.13-1.15-.26-1.54-.26-2.05.13-.13.38-.13.51-.26a3.33,3.33,0,0,1,.26,2.18c-.13,0-.38.13-.51.13Zm18.08,0a3.71,3.71,0,0,1-.64-2.31H173a4.44,4.44,0,0,1,.26,2.18c-.13,0-.26.13-.38.13Zm-45.14-.26V79.8H128v.38Zm2.69-16.54a.13.13,0,0,0,.13.13c0,.38.13.77.13,1.15a.13.13,0,0,0-.13.13c0,.38,0,.38.13.38v-.38h.13a1,1,0,0,1,.64-.13,7.51,7.51,0,0,1,.77,4.62c.51.38.51.13.77,1.15-.13,0-.38.13-.51.13-.26,1-.26,1-.38,5.13a16.78,16.78,0,0,0-2.44,3.46c-.51,0-.9.13-1.15.13V79h.38a13,13,0,0,1-.26-3.21,1,1,0,0,0,.51-.13,12.79,12.79,0,0,1-.26-2.05,8.86,8.86,0,0,0-1,.38c-.77-.38-.51-4.1-.51-4.49h-.51c-.13-.64-.13-1.28-.26-2.05h.77v-.9h.9c0,.13.13.38.13.51h.77a4.81,4.81,0,0,1,.13-1.41c-.13,0-.26-.13-.38-.13a3.84,3.84,0,0,1-2.31.38v.64h-.13a12,12,0,0,1-.77-3.72,11.36,11.36,0,0,1-2.95-.38V62a3.89,3.89,0,0,0,2.18-.77,5.65,5.65,0,0,1-.26-1.28H124l-.38,1.54c-.26-.38-.26-.38-.38-1.67h.64a9.4,9.4,0,0,1-.64-2.56c-.26,0-.51-.13-.77-.13a1.63,1.63,0,0,1-.13-.77,11.71,11.71,0,0,0,2.18,1.15,16.55,16.55,0,0,0,1.15,3.21c.64-.13,1.28-.13,1.92-.26,0-.26.13-.64.13-.9a.77.77,0,0,0,.51.13,10.79,10.79,0,0,0,.38,2.31h.51v-.9c.26,0,.26,0,1.28,2.56Zm1.41,15.26v-.77h.26v.77Zm20,0c-.13-.26-.13-.64-.26-.9h.77v.9Zm-37.32-.26v-.9h.26v.9Zm26.42,0a2.5,2.5,0,0,1-.13-.9,8.13,8.13,0,0,1,.9-.26v1c-.26,0-.51.13-.77.13ZM115.3,76.34v-.26h.13v.26Zm35-.38c-.13-3.46-.13-3.46,0-3.85.38.26.26,2.56.26,3.59-.13.13-.26.13-.26.26Zm5-.51V73.39h.38v2.05ZM120,131.22v-1.8c-2.56.26-4.1,1.67-6,.38,1-.51,4.87-1.67,6.41-.77a3.55,3.55,0,0,1,1.15-.13,2.18,2.18,0,0,1,.13-.9c1.54-.26,3.08-.38,4.74-.51,0-.13.13-.26.13-.38h1c0,.64-4.23,2.18-4.49,2.18,0,.26-.13.51-.13.77h-2.05c-.13.26-.13.64-.26.9s-.51.13-.64.26ZM99.27,120.58h.13c.51-.51-.13-1,1-1.41V118H98v-1.8c-.26-.13-.51-.13-.77-.26l-.38-.77a32.08,32.08,0,0,1,6.28-1.28v.9c.9,0,3.59.9,4.1-.77a20.21,20.21,0,0,0,5.13-.51c1.41-1.41,2.44-1,4.74-.9.64-1,2.31-1.15,2.95-2.31.77-.13,1.41-.13,2.31-.26a2.92,2.92,0,0,1,.38-1.41c.26-.13.64-.13.9-.26.26-1.28,3.33-1.92,4.62-2.56.51-.9,1-1.67,1.54-2.44,1.54-.9,7.82-8.72,8.59-10.64,1-.38,1.41-2.69,1.67-3.33h.64c0,2.18-2.05,3.59-2.44,5.64-.26,0-.38.13-.51.13-.77,2.05-4.1,6.67-5.9,7.31-.51,1.15-.51,1.15-.51,1.54l1.92-.77c.26-.9,1.54-1.54,1.8-2.31.13,0,.26.13.51.13a6.25,6.25,0,0,0,.13,1.54c.26,0,.64.13.9.13.13-.64,0-.9.77-1,.13-.51.26-.9.38-1.28.13,0,.26-.13.51-.13a7.68,7.68,0,0,0,.26,1.54c.77-.26.77-1.15.77-1.54.64-.9,2.44-3.33,3.46-3.72a1.9,1.9,0,0,0-.13-.9,8.16,8.16,0,0,1-.9-.26,3.26,3.26,0,0,0-.26.9c-1.92-.51,0-2.18.13-2.95-.26-.26-.26-.26-.38-.9.13,0,.26-.13.51-.13.26-3.33,2.56-6,2.56-9a7.43,7.43,0,0,0,1.15-4.1c1.41-.9,0-4.36,1.67-6,0-1.28,0-1.28-.38-1.8,0-4.62,0-10.52-2.05-14h.9c0,.26.13.64.13.9h.51c.51,1.28.26,1.67,2.05,2.69,0,.64.13,1.28.13,1.92.13,0,.38.13.51.13.26,1.67,1.54,4,1.8,6.41-.77-.38-.77-.51-.9-.9-.13,0-.38.13-.51.13a24,24,0,0,1-.51,5.9c-.26,0-.38,0-.51.13s.13.51.13.77c.77.38.26,4.36-.9,5.26,0,2.56-1.54,5.64-2.05,8.59-.51.64-.51.64-.51,1,.26.38.64.38,1.54.38.77-1.41.26-7.05,3.33-5.39-.77,2.56-2.31,5.64-2.56,8.46a12.52,12.52,0,0,1-2.31,2.18,11.07,11.07,0,0,1-.13,2.82c-.9.38-.9.64-1,1.41-1.15.26-4.1,4.62-4.87,5.9l-1.15.38c.13-.51.13-1,.26-1.67a5.26,5.26,0,0,0-1.41.13A4.23,4.23,0,0,1,133,108.4c-.64.77-1.54,2.05-2.31,2.31a14.9,14.9,0,0,1-2.69,3.21c-.26,0-.51-.13-.77-.13,0-.26-.13-.38-.13-.51a3.8,3.8,0,0,0-1.28.26c-2.31,2.05-4,2.95-6.92,3.21v.64a5.59,5.59,0,0,0-3.46,1.15c0,.26-.13.51-.13.9-1.28,0-1.92-.38-2.69-.26-.13.13-.13.26-.26.51-1,0-2.05.13-2.95.13v.51a3.48,3.48,0,0,1-2.31-.64c.38-.13.9-.38,1.28-.51v-.9a26.77,26.77,0,0,0-3.21-.13c-.38.38-3.08.13-3.21.13-.13.26-.13.38-.26.64l-.13-.13V118h-.26c0,.26.13.64.13.9a.13.13,0,0,1,.13.13c-.38.64-.38.64-.9.77v.51h.51c-.77,1.54-1.92-.26-1.54,2.05-.26-.13-.38-.26-.64-.38a2.13,2.13,0,0,1,.26-1.41Zm14.49-37.83a.13.13,0,0,1-.13-.13,2,2,0,0,0,.51-1.28,7.83,7.83,0,0,0,1.54-.64V79c.9-.26.77-1,.64-1.54h-.38a.77.77,0,0,0-.13.51c-.26,0-.51.13-.77.13V76.59c.26,0,.51-.13.77-.13A7.46,7.46,0,0,1,116.2,74c0-.13,0-.13.13-.13H118c.26-2.56,0-5.51.64-7.31h.9c0,.38-.13.77-.13,1.15-.26.13-.38.13-.51.26a1.9,1.9,0,0,1,.13.9c.13.13.38.13.51.26v2.05h-.38a15.53,15.53,0,0,0-.13,2.44c.64,0,.9-.38,1.41-.38,0,.38-.13.64-.13,1.15a4.6,4.6,0,0,0-1.41.51c-.13.77-.13,1.41-.26,2.18a.77.77,0,0,0-.51.13c-.13.51-.13.9-.26,1.54-.26,0-.38.13-.64.13-.26,2.31-.13,2.31-1.8,3.33-.13,1.54.38,1.41,1.92,1.28,0-.26.13-.51.13-.77a4.45,4.45,0,0,0,2.69-3.46c.13-.13.38-.13.51-.26a8.12,8.12,0,0,0,.26-.9h1.15v1.41c-2.18.38-1.15,1.41-2.56,3.46.64.26.64.26.77.64a9.74,9.74,0,0,0-1.41.51c0,.13-.13.26-.13.38-2.05.13-4.49,1.41-4.49,3.46a.77.77,0,0,1,.51.13c0-.13,0-.13.13-.13h.51c0,.9-.13,1.8-.13,2.69h-.77c.13.26.13.51.26.77.38,0,.9.13,1.41.13v.64c-.77.13-1.41.13-2.05.26V90.7c-1,0-1.92.9-2.56.9.13-.77.26-1.41.38-2.05.26.26.26.26.77.26.13-.38-.26-1.28-.26-2.18a1.82,1.82,0,0,1,.77-.26c0-.51.13-1,.13-1.54.38,0,.77-.13,1.15-.13-.64-3.08-.64-3.08-.77-2.95Z" transform="translate(-23.11 -0.55)"/><path class="cls-5" d="M124.28,46.33a.13.13,0,0,1-.13-.13c-.13-.38-.13-.38-.64-.51a.13.13,0,0,0-.13-.13c-.13,0-.13,0,0,.13v.13c.13.26.13.64.26,1-1.54-.26-2.18-.9-2.82.64a11.44,11.44,0,0,1-3.33-1c-1,0-2.05.13-3.08.13a1.3,1.3,0,0,0-.51.9c1.67,0,3.59.51,5.64.51.51.26.9.38,1.41.64,0,.38,0,.38.26.38v-.38h.38c.13-.13.13-.26.26-.38,1.54.9,4.87,4.1,5.77,6.54H128c.13.38-.13,1,.9,1.41A50.06,50.06,0,0,1,130.94,62c-.38,0-.64-.13-1-.13-1-3.21-1.54-5.26-4.1-5.9-1.15-1.67-3.59-2.69-3.59-3.72.13-.13.13-.13.26-2.31h-.13v1h-.51c-.13.77-.13.77-.38,1.15a2.68,2.68,0,0,0-.77-.51c.13-.64.13-1.41.26-2.05-.26,0-.26,0-.26.38-2.69-.51-4.87-1.54-7.31-1.28-.38.9-.38.9-.64.9,0-1.15,0-1.15-.13-1.15a2.5,2.5,0,0,0-.13.9c-.26-.38-.26-.9-.51-1.15a.77.77,0,0,0-.13.51c-.77-.13-1.41-.13-2.18-.26v-.26c.38-.13.77-.13,1.15-.26a.13.13,0,0,0,.13.13c.13,0,.26.13.51.13,0-.26,0-.26-.38-.26a.13.13,0,0,1-.13-.13c-.51-.77-1-.13-1.41-.13a6.25,6.25,0,0,1-.13-1.54c-.64-.13-1.15-.26-1.67-.38,0,.26-.13.51-.13.77a1.88,1.88,0,0,1-1.54-1,7.37,7.37,0,0,1-3.08-.51.63.63,0,0,1-.13-.38h-.64a1.77,1.77,0,0,0-.38.51H99.91c0-.26-.13-.38-.13-.51.51-.13,1-.13,1.54-.26V43a6.44,6.44,0,0,0-1.54-.26,1.63,1.63,0,0,0-.13.77c-2.44-.13-4.1-.38-4.36,1.92,1-.26,2.18-1,3.46-.51-1.28,1.8-6.92,2.56-7.57,4.49h-.51c-.13-.26-.13-.38-.26-.51a8.12,8.12,0,0,0,.9-.26c.26-.38.51-.9.77-1.28,0-.13-.13-.26-.26-.38a2.46,2.46,0,0,0-2.69,2.18c-1.41.38-2.05.51-2.31,1.92-.26.13-.64.13-.9.26.51.38.51.38.64.9a2.87,2.87,0,0,0-2.18,2.31c-1.67.64-1.8.64-2.31,2.05H80.42c0,.13.13.26.13.51.26,0,.38.13.64.13A2.49,2.49,0,0,0,82,59.15c1.67-2.18,1.15-2.05,4.1-2.69-.38-.13-.64-.38-1-.51a5.56,5.56,0,0,1,.13-.64c1.15,0,1.15,0,1.41.26-.13.13-.38.26-.51.51a5.26,5.26,0,0,1,1.41.13c0-.38-.13-.64-.13-.9a4.6,4.6,0,0,1-1.41-.51,13.64,13.64,0,0,1,2.18-3.33c2.95-.26,2.95-.26,3.72-.13,0-.64.9-.77,1.41-1.15v-.38c2.82-.38,5.13-3.21,8.85-2.82,0,.26.13.51.13.77-2.82.13-4.49,1.41-6.67,1.92a2.42,2.42,0,0,0-.26,1c-.38.13-.64.26-1,.38,0,2.82-2.56,3.21-3.21,4.87-.64.38-1,.9-1.54,1.15,0,2.56-2.95,1.15-3.46,3.72v.13h-.13a.13.13,0,0,0-.13.13.47.47,0,0,0-.13.38l-.13.13a4.74,4.74,0,0,0-1.41.64v.51a4,4,0,0,1-1.15.13c-.13.38-.13.64-.26,1-.26,0-.38.13-.64.13v2.05c.38,0,.77-.13,1.28-.13,0,.26-.13.51-.13.9,1.15.77,2.69.38,4.49.26-.26,1.67-2.05,1-3.08,1.92-.38,1.67-.51,1.8-2.18,2.56v5H83V76a6.25,6.25,0,0,1,1.54-.13c.13-.26.13-.51.26-.77a6.62,6.62,0,0,0-1.41-.26c.13-.51.13-1,.26-1.41h1.15c.9-2.44,1.92-.64,3.21-1.92h.13a3.74,3.74,0,0,0-.26,1.15,1.16,1.16,0,0,0-.64.13c.13-.26.13-.38.26-.51-1.41-.13-1.15.26-1.8,1.15h-.13c0,.26-.13.51-.13.77h.26v-.64a.13.13,0,0,1,.13-.13h.26c0,.51,0,.51.26.51l.38-.77c.13.26.13.26-.38,2.31h-.64A2.36,2.36,0,0,1,83,77.23v1.41c.26,0,.26,0,.38-.51h1c0,.26.13.64.13.9s-.38.13-.51.26c0,1.67,0,1.67.26,2.05.13-.13.26-.13.51-.13a.47.47,0,0,0,.13.38,5.34,5.34,0,0,0-.77,1,.13.13,0,0,0-.13.13,1.39,1.39,0,0,0-.13.64h.26v-.64h.38c0,.51,0,.51.26.51.13-.64.13-.64.51-1,0,2.44-1.54,2.82-3.46,3.08a4.41,4.41,0,0,1-.13-1.15c-.26.26-.26.26-.13,1.15h-.64a7,7,0,0,1-.9,2.18h-.13c-1.54-2.05-1.54-2.05-1.8-2.69a4.55,4.55,0,0,1,1.15-.51c-2.82-1.15-4.36-5.9-4.36-8a6.27,6.27,0,0,1,1.92-1.15c-.9-1.67-3.46-2.82-1.54-4.23a2.26,2.26,0,0,0-.77-1.67l-.38.77c0-2.05-.51-4.23,1.15-5.26A19.15,19.15,0,0,0,77,60.05a1.16,1.16,0,0,1-.38-1.15h1.15c0-.26.13-.38.13-.51s-.26-.26-.26-.38a20.85,20.85,0,0,1,3.59-3.85c-.13-.13-.38-.26-.51-.38.26-.26.26-.26,1.54-.38.64-3.08,4.36-3.85,5-6.16h.51c.77-2.18,5.51-4,7.69-4.23,0-.26.13-.38.13-.64,1.92-.26,3.59-.51,3.33-2.82a12.64,12.64,0,0,0-3.08-.38,8.88,8.88,0,0,0-.38-1c-.64-.13-.64-.13-2.05.13a1.9,1.9,0,0,0-.13.9A13.2,13.2,0,0,0,91.06,39a3.8,3.8,0,0,0-1.15,1.92,4,4,0,0,0-1,.26,5.55,5.55,0,0,0-.13.64c-.26-.26-.26-.26-1,0a1,1,0,0,0,.13-.51,1.62,1.62,0,0,1,.77-.13c0-.38-.13-.64-.13-.9-.38,0-.77-.13-1-.13v-.51c.38,0,.9-.13,1.41-.13,0-.26,0-.38.13-.51.51-.13,1.54-.51,1.67-1,2.05,0,4.62-2.05,7.57-2.05,1-.38,3.08-2.31,4.23-1.15.38,0,11-.77,11.67,1.28.26,0,.64.13.9.13,1-.77,1.15-.64,2.95-.64.77.9,1.28.38,2.95.38a2.8,2.8,0,0,0-.38.64c.51.13,2.82,1.15,3.46.77.51.26.38.77,1.67.77.26.51.13,1,1.15,1.41v-.9c.51.13.51.13,1.15.77,3.08.64,3.46.64,5.26,4.23a12.64,12.64,0,0,1,2.18.26c.51.77,1.92,3.85,3.33,4.23.13.9,0,2.56,1.8,3.33a2.82,2.82,0,0,1,.13,1c1,.13.9,1.15.9,2.56.13.13.26.13.51.26a17.71,17.71,0,0,1,.9,3.33c2.44.64,1.67,12.31-.38,14.23-.26,0-.51-.13-.77-.13V73.9c.51,0,.51,0,.51.26h-.51a6.73,6.73,0,0,1,.77,2.95,1.16,1.16,0,0,0-.64.13,10.06,10.06,0,0,1-.26-1.8,2.29,2.29,0,0,0-1.28,1.15c-.26-.26-.26-.26-.26-1.8a3.87,3.87,0,0,0,.51-2.56c-.13,0-.26-.13-.38-.13.9-1.67.38-3.59.38-4.87-1.8-2.18,0-4,0-5.9-.64-.64-1.15-1-1.15-1.41a2.08,2.08,0,0,1,.77-.38,5.65,5.65,0,0,1-.26-1.28,3.26,3.26,0,0,0-.9-.26V56.46c-.77-.51-1.15-1.15-1.67-1.15,0-1.92,0-2.05-.9-2.82-.13-.38.13-.64.26-1.41h-.9c0,.13-.13.38-.13.51-1.15,0-4.23-4.36-4.36-4.62a5.75,5.75,0,0,0-1.41-.13V45.69a1.8,1.8,0,0,1-1.15-1.41h-.38v2.05h.38c.26.38.51.77.9,1.28-.51,0-.9.13-1.28.13a1.62,1.62,0,0,1,.13-.77c-.51-.26-.51-.26-.77-.9a5.45,5.45,0,0,0-.26,1.41c-.26-.13-.38-.13-.51-.26,1,1.8,3.72,3.72,4.49,6.41,1.54.64.77,3.72,3.21,4.36-.38-2.95-2.05-4.49-2.31-6.41h.77c.26,2.31,2.82,4.36,3.08,7.57,1.92,1.92,2.56,11.28,2.56,14.62a8.34,8.34,0,0,0-1.15,3.33h-.38c0,.64.26,3.59-1.41,3.59V79.41c.64-1.67,3.33-9.62,0-8,0,1.41.38,1.8-.38,3.59,0,1-.13,2.05-.13,3.08-1.15.64-.77,1.41-.77,3.08a9.69,9.69,0,0,0-2.31,5.64c-1.28.51-2.56,2.82-3.33,4.1-1.54,1-3.72,2.95-4.23,4.74.51.26.51.26.77.64-1,.51-2.05,1.92-2.82,2.05v.51a6.62,6.62,0,0,0-1.41.26c0,.13-.13.26-.13.38-.51.13-1,.13-1.41.26,0,.13-.13.38-.13.51-.51.13-1,.13-1.41.26a1.85,1.85,0,0,0-.26.9,2.38,2.38,0,0,0-.9.26v.9a5.74,5.74,0,0,1,1.41.13v.51c-.77.51-2.95.64-3.46.77a2.69,2.69,0,0,0-.51.77c-2.18-.26-4.49-.38-6.67-.64.13-.64.38-1.28.38-1.54a1.77,1.77,0,0,0-.51.38v-1.54h.51c0,.13,0,.26.13.26a19,19,0,0,0,8.34-2.82c0-1.67-.26-1.67,1.28-2.05v.51a.77.77,0,0,0-.51.13c-.13.26-.13.64-.26.9,1.8,0,7.05-4.62,8.46-6,.64-.9,2.18-3.85,3.21-3.85.38-1.92,1.8-2.95,2.05-4.36.13-.13.26-.13.51-.26l.38-1.92c3.08-2.05,2.31-14.11,2.31-15.9-.64-2.95-3.46-12.7-5.64-13.34a8.85,8.85,0,0,1-.51-1.28c-.13,0-.26-.13-.38-.13-.64-1.54-1.8-1.92-2.05-2.95H125v.9h-.64a3.16,3.16,0,0,0,.38-1.54,2.3,2.3,0,0,1-.9-.64c.51-.26.51-.26.64-.77ZM54.52,67.1c-.26-.38-.38-1.92-.13-1.41.38-.38.13-2.05.13-2.31h-.26V64H54c.13-.51.13-1,.26-1.54.26,0,.26,0,.26.38h.38V67.1ZM141.2,64c-.26-.26-.26-.26-.38-1.15h.64c.13.38.13.77.26,1.15Zm.64,7.44c0-1.54-.38-3.33.13-4.23h.64c.64,1.28.13,2.18,0,4.23Zm-5.9-5.13c-.64-1-1-5.77-1.15-6.8h.64a2.4,2.4,0,0,0,1,1.8c.13,1.54.13,3.08.26,4.62l-.77.38Zm-42.7-20A3.75,3.75,0,0,1,93,45.18h1.54a5.3,5.3,0,0,1,.26.77,3.26,3.26,0,0,1-1.54.38Zm12.18-1.8a8.41,8.41,0,0,1-2.56-.9,1.16,1.16,0,0,0-.13-.64,9.71,9.71,0,0,1,1.92-.13c.51.51.9.64,2.44.51a2.16,2.16,0,0,1-1.67,1.15Zm4.36.64c-.38-.38-.38-.38-1.54-.64a.77.77,0,0,1,.13-.51c1.8-.64,2.56.26,4.87.51v.38a13.07,13.07,0,0,0-3.46.26Zm5,.51c-1-.51-1-2.31-1-2.69a2.68,2.68,0,0,1,.77-.51V44h.77v-.9h.38A2,2,0,0,0,117,44.66c-.38.38-.38.38-2.18,1Zm5.39.38-.77-1.15a1.63,1.63,0,0,1,.77-.13,4.56,4.56,0,0,0,.51,1.15c-.26,0-.38.13-.51.13Zm6.28.9a5,5,0,0,0-2.18-2.56c0-1.41,0-1.41.13-1.67.77.64,2.31,1.28,1.54,2.95h.51c0-.13.13-.38.13-.51.26-.13.51-.13.77-.26v-.64c.13.13.26.13.38.26-.13.9-.26,2.18-1.28,2.44Zm-3.72-2.05c-1.15-1.15-.38-1.67-.38-2.69.13.51.26,1.15.38,1.67a7.51,7.51,0,0,1,.26-1.67.77.77,0,0,0,.51.13c-.38,2.18-.38,2.18-.77,2.56Zm-13-2.18c-.77-1.15-2.56-.64-3.21-.64a2.09,2.09,0,0,0-.38-.77,1.63,1.63,0,0,0-.77-.13,8.13,8.13,0,0,0-.26.9c-1.28-.13-4.23.13-4.74-.26v-.77c1.67-.9,2.31-.77,4.62-.9a3.4,3.4,0,0,1,.64-.77h.77l.38.77c1.54,0,1.8-1.54,2.05-2.69a39,39,0,0,1,5.9.9c.77,1,1.41,2.18,2.18,3.21h-.38c-.77-1-1.92-.64-2.69-.64-.13-.26-.13-.38-.26-.64-1,.13-2.05.13-3.08.26,0,.38-.13.64-.13,1,1,.13,1.92.26,2.82.38a9.45,9.45,0,0,1-3.46.77ZM94.14,15.17a3.22,3.22,0,0,1-.51-.9c.51-.13,1-.13,1.67-.26v1c-.38,0-.9.13-1.15.13ZM88,53.9c-.13-1-.38-1,.77-1v.77c-.26.13-.51.13-.77.26Zm-1.67,9.23c0-.26-.13-.38-.13-.64a1.08,1.08,0,0,1,.9-.26V63c-.26,0-.51.13-.77.13Zm-6,2.95v-.13h.13v.13ZM83,59.15a2.08,2.08,0,0,1,.38-.77c.51-.13.51-.13.77.13a3.36,3.36,0,0,0-1.15.64Zm-2.44,0h.13a9.09,9.09,0,0,0,.13,1.8c-.64-1.15-.77-1.15-.64-1.92a.47.47,0,0,1,.38.13Zm-3.59,4c.13-.38.13-.77.26-1.15h.51A3.74,3.74,0,0,0,78,63.13Zm45-21h.13a7.51,7.51,0,0,0-.26,1.67c-.26-.26-.51-.26-.64-.38.13-.13.26-.13.38-.26.26-1,.26-1,.38-1Zm.51,55.4v-.64c.26-.13.51-.13.77-.26-.13.26-.13.51-.26.77-.13,0-.38.13-.51.13Zm-7.05-22.44V74.8h.26v.26ZM125,74.8V73.39h.64a4.81,4.81,0,0,0-.13,1.41Zm-26.8-.26c0-.77.77-.9,1.28-1.15,0,.26-.13.64-.13,1-.51,0-.77.13-1.15.13Zm5-.38a.13.13,0,0,0-.13-.13V73.9l-.13-.13-.13-.13-.13-.13a5.58,5.58,0,0,1-.9-.51,5.26,5.26,0,0,1-.13-1.41.13.13,0,0,0-.13-.13c-.13-.38-.26-.9-.38-1.28h.9c0,1.54.13,1.28,1.54,2.69.13,0,.38-.13.51-.13a.13.13,0,0,1,.13.13v.38a.47.47,0,0,0-.38.13,2.5,2.5,0,0,1,.13,1v.13l-.77-.38Zm-52.19.13v-.64c.13,0,.26.13.38.13-.13.51-.13.51-.38.51Zm52.06,0V74a.13.13,0,0,1,.13.13.13.13,0,0,0-.13.13ZM103,74l-.13-.13c0-.13,0-.13.13-.13l.13.13c-.13,0-.13,0-.13.13ZM33.36,73.9v-.64c.51,0,.51,0,.64.26a2.8,2.8,0,0,1-.64.38ZM55.67,60.05a.13.13,0,0,0-.13.13,1.28,1.28,0,0,0-.64.51,1,1,0,0,0-.13.64c.77-.64.77-.64.9-1a.13.13,0,0,1,.13-.13c.38-1.28.13-1.41,1.54-1.41,0,.9-.51,1.41-.9,2.31l-.13-.13c-.13,0-.13,0-.13.13l.13.13v.38H55.8c0,1.8-.77,5.51.64,7.44,0,.26-.13.64-.13,1-.13-.13-.38-.13-.51-.26a14.14,14.14,0,0,1-.26-2.31,8.17,8.17,0,0,1-.26.9L54.9,68l-.13-.13c-.26,0-.26,0-.13.13l.13.13c0,1.28.9,2.31,1,4.36h2.31c0,.38.13.77.13,1.15-.13,0-.13.13-.26.26a7.05,7.05,0,0,0-.9-1.15,3.9,3.9,0,0,0-.64.9h-1L55,72.87h-.64a3.9,3.9,0,0,1-.64.9c-.26-4.87-1.15-13.08.64-17.06v-1.8c.13,0,.38-.13.51-.13,0,.51.13,1.28.13,1.92a1.77,1.77,0,0,1,.51.38,14.31,14.31,0,0,0,2.31-5.39,2.81,2.81,0,0,1,.64-.38c0-.77.13-1.54.13-2.31.13.13.26.13.51.26A13.17,13.17,0,0,0,59,51.59h-.38c-.38,1.92-1.41,6-2.95,7.57v.9Zm60.4,13.59.13.13c-.13,0-.13,0-.13.13v-.26Zm-13.34.13a.13.13,0,0,0-.13-.13l.13-.13.13.13a.13.13,0,0,0-.13.13Zm13.46,0-.13-.13a.13.13,0,0,1,.13-.13.13.13,0,0,0,.13.13c-.13,0-.13,0-.13.13Zm-76.3-.13c-.64-1.41.13-3.85.38-5,.26.26.38,3.85.38,5Zm76.43,0a.13.13,0,0,1-.13-.13c0-.13,0-.13.13.13Zm-9.75-.38c.13-.38.13-.64.26-.77h.38a4.54,4.54,0,0,0-.13.77Zm49,0V73h.13v.26Zm-51.29-.38a.13.13,0,0,0-.13-.13.13.13,0,0,1,.26,0,.13.13,0,0,0-.13.13ZM68,72.75V71.59h.64a2.5,2.5,0,0,0-.13,1,.77.77,0,0,0-.51.13Zm36.42,0a.13.13,0,0,0-.13-.13v-.51h-.38v-.9c.26,0,.64.13,1,.13a4.6,4.6,0,0,0-.51,1.41Zm51.17-.26c-.26-1.15-.77-7.31-1.28-8V62.49h.64c.51,3.08,1.15,6.16.64,10Zm16.8-.13a6.51,6.51,0,0,1-.26-1.15c.13,0,.38.13.51.13.13.26.13.64.26,1Zm-55.27-.26v-.51h.13v.51Zm5.64-.26V70.57h.77c0,.38.13.9.13,1.28Zm-21.16-.13a.13.13,0,0,0-.13-.13.13.13,0,0,1,.26,0,.13.13,0,0,0-.13.13Zm-13.46-.26H88a.13.13,0,1,1,.26,0Zm-39.5,0v-1c.13,0,.26.13.38.13a8.18,8.18,0,0,1,.26.9Zm35.65,0a4.6,4.6,0,0,1,.51-1.41c1.41-.38,1.92-1.28,3.08-1.8.26.38.51.9.77,1.28-1.67,0-3.08,1.28-4.36,1.92Zm65.79-.26V71h.38v.26Zm-85.28-.77c0-.13,0-.13.13-.13,0-.26,0-.26-.13-.13s-.13,0-.13.13a3.39,3.39,0,0,1-.77.64,10.61,10.61,0,0,1,.9-1.67h.38a2.5,2.5,0,0,1,.13-.9c1.28-1.67.38-4,.38-5.51h.51v6.67h-.51v-.9h-.26c-.13.64-.13,1.54-.26,2.31h-.38v-.51Zm3.33.51v-.26h.26V71Zm-11.54-.26v-.26h.13v.26Zm120.16,0c-.9-1.28-.51-2.95-.51-4.1.9-.51.38-.9,1.41-.9v.64h-.51a15.21,15.21,0,0,1,.38,4c-.26.13-.51.13-.77.38Zm-78.35-.9v-.64h.26v.64Zm9.87-2.56V67c-.13,0-.13,0-.13.13h-1.8c0,.26-.13.51-.13.9a.13.13,0,0,0-.13-.13c0-.26,0-.26-.38-.26-.13,0-.13.13-.26.26l.38.38h.13a1.63,1.63,0,0,0,.77-.13c.38.26.38.26.51.77-1.67,0-1.92.51-3.21.9,0-.51.13-1.15.13-1.54-.9-1-1.92.13-2.82.38a4.18,4.18,0,0,0-.64-2.82c-.26,0-.64-.13-.9-.13v-.51c20.65,0-11.28-.38,8.21-.38v1.15h1.8v.13h-2.31v.26c.64.13,1.28.13,1.92.26a1,1,0,0,0-.51.26v.38Zm13.85,2.31a1.4,1.4,0,0,1-.13-.64c.26-.26.26-.26.77,0,0,.13-.13.26-.13.38-.26.13-.38.13-.51.26Zm-50.78-.38c-.26-.51-.64-.9-.77-1.28-1.92,0-2.44.13-2.56-1a29.82,29.82,0,0,0,4.23.64,3.81,3.81,0,0,0-.51,1.41c-.13.13-.26.13-.38.26Zm-2.69-.26v-.26h.64v.26Zm20-.26v-.38h.26v.38Zm17.31-.38h-.13c0-.13,0-.13.13-.13l.13.13Zm.13,0-.13-.13c0-.13,0-.13.13-.13v.26Zm-51.29-.13L54.64,68c0-.13,0-.13.13-.13l.13.13c-.13,0-.13,0-.13.13Zm51.29,0v-.26a.13.13,0,0,1,.13.13.13.13,0,0,0-.13.13Zm-16.41-.9.13.13c0,.13-.13.26-.13.38-.26.13-.51.13-.77.26,0-.26,0-.38.13-.51s.38-.13.64-.26Zm9.23.51v-.26h.26v.26Zm-49.63-.26v-.9H50a3.27,3.27,0,0,0-.26.9Zm40.52-.13-.13-.13h.26a.13.13,0,0,0-.13.13Zm27.57-2.31h.26a.13.13,0,0,0-.13-.13c1.15-.13,1.15-.13,1.15.13a.47.47,0,0,0-.38.13,1.54,1.54,0,0,1,.26,1H118l-.38-.77c-.13.26-.13.51-.26.64-.26-.13-.26-.13-.13-1Zm-45.52.13v-.13H72v.13Zm11.54,0a2.81,2.81,0,0,0,.38-.64,1,1,0,0,0,.13.64Zm34.11-.13h-.13a.13.13,0,1,1,.26,0ZM68.11,64.8v-.26h.26v.26Zm58.48-.13v-.26a.13.13,0,1,1,0,.26Zm-55.53-.38c-.77-.38-.9-.64-1-1.15.64.13,1.28.13,1.92.26v.9ZM49.51,63.9c-.13-.38-.13-.38.13-.77a1.63,1.63,0,0,0-.13.77Zm36.16-2.18a.13.13,0,0,1,.13-.13.47.47,0,0,1,.13-.38.13.13,0,0,1,.13-.13v-.13h.13a9.51,9.51,0,0,1,3.46-.26c0,1.8-2.82,3.85-4.23,2.82-.13-.77.13-1,.26-1.8ZM110.3,63.9a3,3,0,0,1-.26-1h.38c0-.64,0-.64.26-.64v.51a2.18,2.18,0,0,0,.9.13c0,.26-.13.51-.13.77a8.21,8.21,0,0,0-1.15.26Zm20.26-.13a.13.13,0,1,1,0-.26v.26Zm0-.13v-.13c0-.38,0-.38.13-.38s-.13.38-.13.51Zm.38,0v-.51h.51v.51Zm-46.42-.26v-.26h.26v.26Zm65.79,0c0-.38-.13-.64-.13-.9h.38c0,.26.13.51.13.9Zm-32.06-.51a1.63,1.63,0,0,1-.13-.77c.51.51,1,.64,1,.77Zm-48.09-.38v-.26h.77v.26Zm36.42-.13-.13-.13.13-.13.13.13-.13.13Zm2.56-.13v-.38h.64v.38Zm-3.08-.13V62h.13l-.13.13Zm43.34-.26c-.13-.64-.13-1.15-.26-1.8a1.63,1.63,0,0,1,.77.13,2.7,2.7,0,0,1,.13,1.67Zm-86.3-3.59-.13.13.13.13.13-.13c.13.13.13.26.26.51a.47.47,0,0,0-.38.13v1.92c0,.13.51.13.51.38a1.63,1.63,0,0,0-.77.13c0-.26-.13-.38-.13-.51h-.51c0-3.59,2.31-5,5.51-5.51,0,.26-.51.26-.51.51h.51v.38c-.64.13-1.28.26-1.8.38.13,0,.26.13.51.26-.77.13-1.54.13-2.31.26,0,.26,0,.26.38.26-.13.13-.13.38-.26.51-.38.13-.77.13-1.15.26Zm38.21,3.21-.13-.13.13-.13.13.13-.13.13Zm54.89-.13a1,1,0,0,1,.13-.64l.26.26-.38.38Zm-99.9-.13-.13-.13.13-.13.13.13-.13.13Zm97.59-.13a32.22,32.22,0,0,1-.38-4c-.26-.13-.38-.13-.51-.26a22.1,22.1,0,0,1-1.15-4.62h.51c0,2.56,1.92,5.64,2.44,8.85ZM70,60.44v-.26h.13v.26Zm.38,0v-.38c.38,0,.9.13,1.41.13v.26Zm55.78,0v-.9h.26v.9Zm-76.69-.26v-.38H50v.38Zm14.36,0A3.55,3.55,0,0,1,63.75,59h.77c.13.77-.38,1.15-.64,1.15ZM72,60.05a2.15,2.15,0,0,1-.77-1.15c.38-.38,1,0,1.67.26v.9Zm-21.8-.51a7.75,7.75,0,0,1,.64-3.72c.38,0,.64-.13,1-.13a28.65,28.65,0,0,0-.26,3.85Zm15-.26v-1.8h1a3,3,0,0,1-1,1.8Zm25,0V58.9h.26v.38ZM89,58.9v-.26h.26v.26Zm58.48,0a2.61,2.61,0,0,1,.13-1.67c-.51-1.92-1.41-3.33-1.28-4.87,1.67,1.28,1.92,4,2.18,6.54ZM91.19,58a.13.13,0,0,1,.13.13c0,.13-.13.26-.13.38a1.63,1.63,0,0,0-.77.13c.13-.13.13-.38.26-.51s.38-.13.51-.13Zm59.12.64v-.38h.38v.38Zm15.13-.26v-.13h.26v.13Zm-74.12-.26a.13.13,0,0,0-.13-.13.13.13,0,1,1,.26,0,.13.13,0,0,0-.13.13Zm.13-.13a.13.13,0,0,0-.13-.13c.38-1,.13-1,1-1.41.13.13.13.26.26.38-.64.13-.9.64-1.15,1.15ZM71.31,56.2v-.26h.51v.26Zm78.22,0c0-.38-.13-.64-.13-.9h.38a8.1,8.1,0,0,0-.26.9Zm-78-.51v-.26h.26v.26Zm71.17-3.59h.13a2.27,2.27,0,0,1,1.8.51,21.76,21.76,0,0,0-.51,2.82h-.51c-.26-.38-.26-.38-.9-3.33ZM61.82,55.43c0-.13.13-.13.13-.26S61.7,55,61.57,55l.38-.77h1.92v-.13H63v-.51c.38,0,.9.13,1.41.13,0,.26-.13.51-.13.77-1.41,0-1.54.64-2.44.9Zm-10-.13a2.31,2.31,0,0,1-.38-1.54c.38,0,.64-.13,1-.13-.13.51-.13.9-.26,1.41-.13.13-.26.13-.38.26Zm51.81,0v-.51h.26v.51Zm5.9-.38a.13.13,0,0,1,.13-.13c.13-.26.13-.26.38.26a1,1,0,0,0-.51-.13Zm-59.37-.51c0-.13,0-.13.13-.13h.38c-.13.13-.13.26-.13.51l-.38-.38Zm60.14.38a1.85,1.85,0,0,1,.26-.9c.26.26.26.26.13.64-.13.13-.26.13-.38.26Zm38-.51V53.9h.26v.38Zm.38-.13V53.9h.26v.26Zm-93.23-.51v-.26h.26v.26Zm11.41,0v-.9c.51-.13,1.15-.13,1.8-.26-.38.77-1.15.9-1.8,1.15Zm81.69-.51v-.38h.38v.38ZM52.72,53V51.33c-.64-.13-.64-.13-.9-.38a.47.47,0,0,1,.38.13c.13-.13.13-.26.26-.38h.9c-.13.64-.13,1.41-.26,2.31ZM65.8,47.74h.13a16.45,16.45,0,0,0-.9,3.85h-.51c-.38,1-.38,1-.64,1a1.91,1.91,0,0,1-.13-.77A3.85,3.85,0,0,0,64.39,49a1.79,1.79,0,0,0,.9-1.15c.13-.13.26-.13.51-.13Zm2.31,4.49c-.77-1.28,1.92-5.26,2.95-5.9-.26,1.15-.64,1.41-1,2.95-.26.13-.38.13-.51.26a19.3,19.3,0,0,1-1.15,2.31c.64.26.64.26.64.38Zm-17.7-.13v-.77h.9v.77Zm23,0v-.26h1.41v.26ZM142.74,52v.13h-.9a4.81,4.81,0,0,1-.13-1.28c.26,0,.38-.13.64-.13.13.38.26.77.38,1.28Zm-66.43-.13v-.26h.26v.26Zm21.16,0v-.26h.77v.26Zm2.05,0c-.64-.26-.64-.26-.64-.51H100v.51Zm70.15,0v-.51h.38v.51Zm-51.94-.26v-.51a10.35,10.35,0,0,1,2.05-.13,1.29,1.29,0,0,0-.13.38c-.64.13-1.28.13-1.92.26Zm-44-.26v-.64H74.9v.38c-.38.13-.77.13-1.15.26Zm74,0c-.26-.77-.38-1-.9-1.15.13-.9.13-.9.38-1.15.13.38.9,1.15.9,2.05-.13.13-.26.13-.38.26Zm3.46,0v-1a.45.45,0,0,1,.26.13c0,.38.13.64.13.9Zm-50.53-.26c0-.13.13-.26.13-.51h1.92c.13,0,.13.13.26.26-.26.13-.26.13-2.31.26Zm31.16-.13v-.51h.26v.51Zm-81.43-.26c-1.15-1.8,1.92-5.39,2.56-7.05a2.84,2.84,0,0,1,1.15-.13c.26-1.41.51-3.85,2.44-3.46,0,1.15-1.15,4.1-2.56,4.49-.13,1.15-.77,2.31-.9,3.85-.9.51-1,.9-1,2.05-.64.13-1.15.13-1.67.26Zm90.54-.26V48.89c.13-.13.26,0,.51,0a6.43,6.43,0,0,0,.26,1.54Zm28,0c-.13-.26-.13-.51-.26-.64h.51c-.13.13-.13.38-.26.64ZM53.62,49.79c0-.38.13-.64.13-.9a8.17,8.17,0,0,1,.26.9Zm89.12,0c0-.38-.13-.77-.13-1.15h.64v1.15Zm7.57,0v-.9c.26.13.26.13.38.9ZM76.83,48.64v-.26H77v.26Zm1.15,0a5.45,5.45,0,0,1-.26-1.41h.9v1.41Zm62.58,0a1.82,1.82,0,0,1-.26-.77h.38c0,.26-.13.51-.13.77Zm-64.63-.38v-.13c.38,0,.38,0,.38.26a1.29,1.29,0,0,1-.38-.13Zm54.37.13v-.26h.26v.26Zm14.11,0v-.64h.38v.64ZM75.67,48a.13.13,0,0,1,.13-.13.13.13,0,1,1-.13.13Zm73.74.13c0-.64,0-.64.26-.9,0,.38.13.64.13.9ZM110.94,48a.13.13,0,0,1,0-.26.13.13,0,0,1,0,.26Zm-6.16-.13v-.64h2.31v.51c-.9,0-1.54.13-2.31.13Zm-38.86-.13H65.8a.13.13,0,0,1,.13-.13.13.13,0,0,0,.13.13Zm.13,0a.13.13,0,0,1-.13-.13c0-.38,0-.38.26-.38a.77.77,0,0,0-.13.51Zm79.89,0c-.51-.9-.64-1-.51-1.54a2.93,2.93,0,0,1,1,1.54Zm-69.63-.26v-.64a1,1,0,0,1,.64.26,2.79,2.79,0,0,1-.64.38ZM83,47.23v-.38h.64v.38Zm56.42,0a5.45,5.45,0,0,1-.26-1.41,8.23,8.23,0,0,0,.9.26v1a5.55,5.55,0,0,0-.64.13ZM66.31,47a3.55,3.55,0,0,1-.13-1.15,1.16,1.16,0,0,1,.64-.13c-.13.9-.13.9-.51,1.28Zm6.54,0a5.44,5.44,0,0,1,.9-2.05.77.77,0,0,1,.51-.13v1c-.77.51-.64.26-.9,1.15ZM124,46.33a.13.13,0,0,0,.13.13c0,.38,0,.38-.26.38a.77.77,0,0,1,.13-.51Zm.13.13a.13.13,0,0,1,0-.26.13.13,0,1,1,0,.26Zm20.65-.38c-.9-.38-.64-1.54-.9-2.18h.51a4.73,4.73,0,0,1,.38,2.18Zm-21.42-.26v-.26a.13.13,0,0,1,.13.13.13.13,0,0,0-.13.13Zm-56.3-.64c0-.38.13-.77.13-1.28C71.31,39,75.8,32.22,82.09,30.17c0-.13.13-.38.13-.51,2.05-.77,2.31-2.31,5.77-1.67V26.58h1.28v-.26H88.11v-.9a65.23,65.23,0,0,0,7.18-.51c2.56-1.8,5.64-1.15,9-1.15a2,2,0,0,1,.51-.77h1.28v.38h-.64c0,.51,0,.51.38.64l-.38.38c-.13-.13-.13-.26-.26-.38h-.64c-.13.64-.13.64.26,2.56H104c-.26-2.18-1.41-2.18-2.44-2.18,0,.77.26,1,1.54,1.28,0,.13-.13.26-.13.38h-1a7.57,7.57,0,0,0-.51.77,10.17,10.17,0,0,0-.51-1.15h-.51c0,.38-.13.64-.13,1.15-1.8-.26-1.8-1.15-3.08-1a1.77,1.77,0,0,1-.38.51c.26.13.38.26.64.38a3.58,3.58,0,0,1-1.28.13,6.13,6.13,0,0,0,.26,2.44,1.32,1.32,0,0,1-1.15-1.41c-3.21,0-2.95.26-2.82,3.08-.26,0-.51.13-.9.13-.51-1.15-1.41-1-1.67-1.41a3.06,3.06,0,0,0,1.41-.77c-.13-.26-.13-.38-.26-.51-.64,0-1.41.13-2.05.13-.26.77-2.44,1.67-2.95,1.92a.47.47,0,0,0-.13.38c-1.15,0-1.67.77-2.56,1-2.56,0-2.82-.13-5,1v1.41c-1.41.26-1.67,0-2.05,1.15-.9,0-.9.77-1.8.9-.51,3.21-4.49,5.26-6.16,8a11.08,11.08,0,0,0-1.28.9Zm13.34,0a1.4,1.4,0,0,1-.13-.64c-.26-.13-.38-.13-.51-.26v-.64c.51.13,1.15.13,1.15,1.41-.13,0-.38.13-.51.13Zm61.94-.26.38-.38v.38Zm23.85-.38v-.9h.38v.9Zm-91.43-.26a.77.77,0,0,1-.13-.51h.51c-.26.13-.26.38-.38.51Zm13.08-.38L88,44H86.83c.38,0,.64-.13,1-.13Zm31.42.26-.13-.13c-.13-.26-.13-.26-.77-.38v-.38l-.13-.13h.26c.64.38.64.38.77.9h.13l-.13.13ZM88,44l-.13-.13c0-.13,0-.13.13-.13V44Zm0-.13v-.13c0-.38.13-.51.13-.77h1.15c0,.13-.13.26-.13.51a2.07,2.07,0,0,0-1.15.38Zm56.81-.26V43h.26v.64Zm-3.33-.51c-.64-.9-.64-.9-.64-1.54.64.51.64.51,1,1.54Zm-23.21,0-.13-.13c-.64-.51-.64-.51-.9-.9h.51a7.84,7.84,0,0,0,.51.77v.26ZM85.16,41.84V42c0,.26-.13.38-.13.77-.9-.13-.9-.13-1.15-.38a13.31,13.31,0,0,1,1.28-.51Zm1.41.9v-.51a3.19,3.19,0,0,1,1.15-.13v.38a3.75,3.75,0,0,0-1.15.26Zm3.33,0v-.51l1.15-.38v-.51h.77c.13.13.13.26.26.51a8.83,8.83,0,0,0-1,.38c0,.13-.13.26-.13.51Zm48.35,0v-.51h.38v.51ZM85.16,42v-.26a.13.13,0,0,1,.13.13.13.13,0,0,0-.13.13Zm-8.85-.13V41.2h.51a1.28,1.28,0,0,0-.51.64Zm9,0a.13.13,0,0,0-.13-.13l.77-.38v.51Zm55-.26c-.9-.38-.77-1.67-.9-2.31.64.26,1,.77.9,2.31Zm-61-.26V41.2h.26v.13ZM83,41.2a2.5,2.5,0,0,1-.13-.9h.64a2.5,2.5,0,0,0,.13.9Zm35.91-.9a.13.13,0,0,0-.13-.13H119c.38.13.38.13.51.77h-.38c-.13-.26-.13-.51-.26-.64Zm-42.06-.13c0-.13.13-.26.13-.51h.9c0,.26-.13.38-.13.51ZM63,40v-.26h.13V40Zm-6.92-.51c3.08-5.77,9.1-12.05,14-15.9.9-1.54,2.82-1.8,3.72-3.46H75c.77-1.92,4.23-2.18,6.28-2.82a3,3,0,0,1,2.31-.9,3,3,0,0,1,.26-1c2.56-.51,4.87-1.67,7.82-2.05,1.15-1.15,3.85-1.28,5.77-1.28.77.77,4.49.64,6.16.64,0,.13-.13.26-.13.51-2.18,0-7.44,0-8.08,2.31-.77.13-1.67.13-2.44.26a2.25,2.25,0,0,1-.51-.64,10.53,10.53,0,0,0-3.59.64c0,.26-.13.38-.13.64a29.14,29.14,0,0,0-3.33.26v.51c-3.46.64-9.49,2.31-11.28,5-2.95,1.41-5.39,4.49-8,6.16-1.15,1.92-4.62,4-5.13,5.9-2.31,1.28-2.31,4.49-5,5.26Zm70.15-.64c0-.26,0-.38.13-.51l.26.26c-.13.13-.26.13-.38.26Zm-48.09-.26c.26-1.28.77-1.15,1.8-1.67l.26.26c-1,.9-.9,1-2.05,1.41Zm60.53,0v-.26h.9v.26Zm-.38-.51c-.51-.13-.9-.38-1.41-.51,1.15-.13,1.15-.13,1.15-.38h-.9V37a24.47,24.47,0,0,0,2.69.77v.38Zm-53.73-.51a.13.13,0,0,0-.13.13.4.4,0,0,0-.26-.13Zm48.22,0a.13.13,0,0,0-.13-.13.13.13,0,1,1,.26,0,.13.13,0,0,0-.13.13Zm-43.86-.77c-.13-.26-.13-.51-.26-.77H89c0,.26-.13.51-.13.77Zm-7.69-.77c-.26-1.54,0-1.28,1.15-2.18.51.38.51.51,1.28.51,1.28-1.28,3.59-1.92,4.49-3.85H89.4c-.64.9-1.28,1.8-1.8,2.69-2.56.38-4,2.44-6.41,2.82Zm12.7-.13v-.51h.38v.51Zm29.49-2.18a.13.13,0,0,1,.13-.13.13.13,0,0,0-.13-.13v.13c-.38.13-.64.51-1,.77,0-.13-.13-.13-.26-.26s.13-.13.26-.26a3.8,3.8,0,0,0-1.41-.51c-.13-.38-.13-.77-.26-1.15.13.13.38.13.51.26l.38-.77c.51-.13.77.13,1.41.26v.51h.64c.13-.26.13-.51.26-.77.13.13.38.13.51.26,0,.64-.64.64-.13,1.67a1.63,1.63,0,0,0,.77.13v.51a1,1,0,0,1,.64.13c.13.26.13.51.26.77-.51.26-.9.64-1.41.64-.13-.13-.13-.26-.26-.38.13-.13.38-.13.77-.26-.13-.26-.13-.38-.26-.64a3.55,3.55,0,0,0-1.15-.13c-.13-.26-.13-.51-.26-.64ZM62.72,35.17c0-2.18,2.82-4.23,4.23-5.9,0-1.15,1.15-1.28,2.31-1.54v.64c-1.92.64-2.31,3.21-4.1,3.85,0,.64-1.8,2.69-2.44,2.95Zm87.33-1.92-.13-.13.13-.13.13.13-.13.13ZM149.8,33l-.13-.13.13-.13.13.13-.13.13Zm-20.9-1.28c0-.13,0-.13.13-.13a.4.4,0,0,0,.13.26,5413.58,5413.58,0,0,1-.38.38l-.13.13v.13a.13.13,0,0,0-.13.13h-.13a1808.1,1808.1,0,0,0-.26.26c-.13,0-.26-.13-.38-.13s.13-.13.26-.13c-.26-.13-.26-.13-.38-.13v-.77Zm-9.36.9c-.38-.38-.38-.38-.9-2.18,2.05.64,1,.64,1.8,2.18ZM131.46,32l.13.13v.38h-.38a1,1,0,0,1,.26-.51Zm35.65.51v-.9c.13-.13.26-.13.51-.26v1.15Zm-76.17-.77v-.13h.38v.13Zm-37.32-.13V30.17H54c.13.38.13.9.26,1.41Zm35.91,0v-.26h.9v.26ZM143,31.45a.13.13,0,0,1,0-.26.13.13,0,0,1,0,.26Zm-.26-.26v-.26a.13.13,0,1,1,0,.26ZM72,31.07c.38-1.15.64-1.15,1.67-1.28l-.77.38c0,.38-.13.64-.13.9Zm21.42,0v-.26h.26v.26Zm39.63,0a8.22,8.22,0,0,1-.26-.9h.51a.77.77,0,0,1,.13-.51c.26,0,.51-.13.77-.13-.13.51-.13,1-.26,1.54Zm9.62-.13a.13.13,0,0,1,0-.26.13.13,0,0,1,0,.26Zm-25.13-.13c-.38-.38-.38-.38-.64-1.28.26,0,.64.13,1,.13a4.56,4.56,0,0,0,.51,1.15Zm-17.82-.64a.13.13,0,0,0,.13.13c0,.38,0,.38-.26.38,0-.13.13-.38.13-.51Zm62.19.51a18.17,18.17,0,0,0-2.05-1.8,1.62,1.62,0,0,1-.13-.77c-.9-.26-2.82-2.82-2.82-2.95-2.56-1.28-4.74-4.23-6.54-5.13-.13-.26-.13-.51-.26-.77.38,0,.77.13,1.15.13.13.26.13.38.26.51a11,11,0,0,1,2.95,2.69c2.44,0,5.77,5,8.21,7.05v1ZM99.78,30.3a.13.13,0,0,1,0-.26.13.13,0,0,1,0,.26Zm.13-.13a.13.13,0,0,1-.13-.13v-.51H100a1,1,0,0,0-.13.64Zm25.65,0v-.26h.13v.26Zm-36.93-.26v-.38h.26v.38Zm52.32-.77a.13.13,0,0,1,.13-.13.13.13,0,1,1-.13.13Zm-.38-.38c0-.13,0-.13.13-.13l.26.26a.13.13,0,0,0-.13.13c-.13-.13-.13-.26-.26-.26Zm-38.73.13v-.26h.26v.26ZM140,28.5c0-.13,0-.13.13-.13a.47.47,0,0,1,.38.13c-.13,0-.13,0-.13.13a.47.47,0,0,0-.38-.13Zm-.26-.26.13-.13a.13.13,0,0,1,0,.26l-.13-.13Zm-.38-.38c0-.13,0-.13.13-.13l.26.26-.13.13c-.13-.13-.13-.26-.26-.26Zm-.13-.13-.13-.13c0-.13,0-.13.13-.13l.13.13c-.13,0-.13,0-.13.13Zm-83.23-.26V27h.51v.51Zm83.1-.13c-.13,0-.13,0-.13.13,0-.26,0-.26.13-.13ZM122.1,27c-1.8-.38-2.05-.77-3.21-.77V25c.51,0,1,.13,1.54.13v.51l3.21.38v.77c-.51,0-1,.13-1.54.13Zm-64.76-1a.13.13,0,0,1,.13.13,2.09,2.09,0,0,0-.38.77c0-.38-.13-.64-.13-.9Zm29.24.9v-.51H87v.51Zm58.22-.13a.13.13,0,0,0-.13-.13.13.13,0,0,1,.26,0,.13.13,0,0,0-.13.13Zm-32.7-.64v-.13h.26v.13Zm5.39,0V24.79H118v1.15c-.13,0-.26.13-.51.13Zm-60,0a.13.13,0,0,0-.13-.13.13.13,0,1,1,.26,0,.13.13,0,0,0-.13.13Zm.13-.13a.13.13,0,0,0-.13-.13c.26-1,.77-1.28,1.41-1.92a2.2,2.2,0,0,1-1.28,2.05Zm58.73,0V24.66c.13,0,.38-.13.51-.13,0,.38-.13.64-.13,1.15-.13,0-.26.13-.38.26Zm27.19-.13-.13-.13c0-.13,0-.13.13-.13l.13.13c-.13,0-.13,0-.13.13Zm-29.11-.13c0-.64.13-1,.13-1.54,0,.38.13.9.13,1.28a.28.28,0,0,0-.26.26Zm28.6-.13-.13-.13c0-.13,0-.13.13-.13l.13.13c-.13,0-.13,0-.13.13Zm-32.7-.13V23.38h.13v2.05ZM111.58,24c0-.13,0-.13.13-.13v1.54c-.51-.51-.13-1-.13-1.41ZM113,25.43a1.59,1.59,0,0,1-.38-.26V24h1v1.41Zm29.62-.13-.13-.13c0-.13,0,0,.13,0s0,0,.13,0c-.13,0-.13,0-.13.13Zm-34.24-.77v-.9h1v.9Zm30.91-.26.13.13a5.26,5.26,0,0,0-1.41.13v-.26Zm.13.13-.13-.13c0-.13,0-.13.13-.13l.13.13c-.13,0-.13,0-.13.13Zm7.44-.13a13.41,13.41,0,0,0-5.77-4.49,6.72,6.72,0,0,0-1.28-1.41,5.72,5.72,0,0,1-4.1-3.46,21.87,21.87,0,0,0-2.31-.64c-.26-1-1.41-1-1.8-1V12.6c1.41,0,2.82.77,4.74,1a2.54,2.54,0,0,0-.26,1.41c1.41.9,3.46,1.8,5.39,2.82A2,2,0,0,0,142,19.4c.38,0,.77-.13,1.28-.13a1.86,1.86,0,0,0,.26.9c.38.13.77.13,1.15.26.26.38.26.77,1.41,1,.26.9,1.28,1,1.41,2.82ZM84.78,24v-.38h.38V24Zm52.71,0c-.13-.9-.13-.9.13-1,0,.26-.13.64-.13,1Zm-25.9-.26v.13c-.13-.26-.13-.26,0-.13Zm-25.26-.38a.45.45,0,0,0-.13-.26c1.54-1,.64-1.15,3.08-1.15v.77a6.44,6.44,0,0,0-1.54.26v.38Zm4.62,0c-.26-.13-.38-.13-.51-.26.13-.38.13-.77.26-1.15.51-.13,2.44-1.41,3.08.26l-1.54.38a1,1,0,0,0-.13.51,8.21,8.21,0,0,0-1.15.26Zm-21.16-1.8v-.26H70v.26Zm27.31,0c0-.26.13-.38.13-.64.26,0,.51.13.77.13v.51Zm60,0v-.26h.51v.26Zm-63.22-.51a1.62,1.62,0,0,1-.13-.77c.38,0,.64-.13,1-.13-.13.26-.13.51-.26.77-.26,0-.38.13-.64.13Zm11.16,0v-.64h1.8v.64Zm-34.62-.26v-.64h.51c-.26.26-.38.51-.51.64Zm65.79,0a1.77,1.77,0,0,1-.38-.51c.13,0,.38-.13.51-.13a5.55,5.55,0,0,1-.13.64ZM98.5,19.27l.13.13c-.38.9-3.21.51-3.59.51.38-1.28,2.05-.64,3.46-.64Zm-27.44.64v-.38a1.63,1.63,0,0,1,.77.13,1.82,1.82,0,0,0-.77.26Zm43.09,0c-.77-1.15-3.72-.77-4.49-.77,0-.26-.13-.51-.13-.77,2.05-.13,4.23.51,6.67,1,0,.26.13.38.13.51Zm20.9,0c-.9-.64-.77-.9-.9-1.28h.64a3.12,3.12,0,0,0,.9,1.15c-.26,0-.38.13-.64.13ZM98.63,19.4l-.13-.13.13-.13a.13.13,0,0,0,.13.13.13.13,0,0,0-.13.13Zm-26.42-.13c0-.13-.13-.26-.13-.38.9-1,.9-1,2.44-1.41,0-.38.13-.9.13-1.15.26-.13.38-.13.51-.26.26.51.26.51.77.64-.38.9-1,.51-1.41,1.67-.9.26-1.67.77-2.31.9Zm26.54,0a.13.13,0,0,1-.13-.13c.64-.64,4.23-2.44,5-.13-1.67.13-3.21.13-4.87.26ZM64.26,19v-.38h.26V19Zm68.48-.64c-.13-.38-.13-.38.13-.77,0,.26-.13.51-.13.77ZM76.83,16.71c-.26,0-.38-.13-.51-.13v-.51h1.15v.51a5.55,5.55,0,0,0-.64.13Zm-9.62-.13c.13-.26.13-.26.77-.51v.51Zm1.15-.77v-.38h.77a.45.45,0,0,0-.13.26,5.56,5.56,0,0,0-.64.13Zm7.05,0c-.13-1.28-.38-1.54-.26-2.05.64,0,1.15.38,2.31.51v.64c-1.41.26-1.15.64-2.05.9Zm46.42,0v-.38h1c0,.13,0,.13-1,.38Zm-52.32-.64v-.64H70a1.28,1.28,0,0,0-.51.64ZM120,14.91v-.38h.38l-.38.38Zm25.26,0v-.38h.64a2.81,2.81,0,0,0-.64.38ZM130,14.66v-.13h.64v.13ZM78,14.27v-.64h1.28v.64Zm50.53,0c-.26-.13-.38-.38-.51-.51a2.18,2.18,0,0,1,.9-.13,1.09,1.09,0,0,1-.38.64Zm-48.22-.64c-.26-.13-.38-.26-.51-.26s.13-.38.13-.51c.38-.13.9-.26,1.41-.38V12c1.92,0,4.36-.64,6.67-.13v.38c-2.05.26-3.59.9-5,1.15-.13-.13-.13-.38-.26-.51a2.5,2.5,0,0,0-.9-.13,2.17,2.17,0,0,1-1.54.9Zm45.65-.26c-.26-.13-.38-.13-.38-.26v-.38a7.39,7.39,0,0,1-3.46-1,20.79,20.79,0,0,0-2.82-.13V10.42a31.75,31.75,0,0,1,8.08,2.44c.13.13.13.38.26.51Zm-53.73-.26c.51-1,1.8-2.31,3.21-2.05.13.13.13.26.26.51-.51.13-1,.26-1.41.38-.13.13-.13.26-.26.51a9.21,9.21,0,0,1-1.8.64Zm56.42-.64c0-.26-.13-.64-.13-.9a2.13,2.13,0,0,1,2.05.64,9.9,9.9,0,0,0-1.92.26ZM104,12.22a2.8,2.8,0,0,1,.38-.64c.13.13.13.26.26.51-.26,0-.38.13-.64.13Zm40.78-.38c-.13-.26-.26-.38-.38-.64.38,0,.77-.13,1.15-.13v.77ZM143,10.68c-.13-.13-.13-.26-.26-.38.38,0,.64-.13,1-.13v.51ZM110,10a1.15,1.15,0,0,1-.13-.64c.38,0,.77-.13,1.28-.13V10Zm-4.62-.77V8.63h.64v.64ZM133,8.37c-.13-.26-.13-.51-.26-.64.38,0,.64.13,1,.13,0,.13.13.26.13.51Zm-48.86-.9A1.16,1.16,0,0,1,84,6.83c.13.13.26.13.38.26-.13.13-.26.26-.26.38Zm54.37-.9c-.13-.13-.13-.26-.26-.38.26,0,.38-.13.64-.13v.51Zm-1.41-.77c-.13-.13-.13-.38-.26-.64a2.81,2.81,0,0,1,.64.38c-.13.13-.26.13-.38.26ZM125,5.68V4.91c.13.13.38.13.51.26s.13.26.13.51ZM88,.55h.38v.9H88V.55Zm38.47,62.19a4.81,4.81,0,0,1-.13-1.28h.9c0,.38.13.77.13,1.28Zm3.33-10.52a3.55,3.55,0,0,1-.13-1.15h.77c.13.38.13.77.26,1.15ZM102.86,64.41a7.57,7.57,0,0,1-.26-1.8H103c0-.38,0-.38.26-.38v.38h.51V64h-.51v.38Zm3.72-1-.13-.13c.13-.13.26-.13.51-.13,0,.26,0,.26-.38.26ZM106.07,62c.13-.77.9-1,1.54-1.41v1c.64,0,.64,0,.9.26-.9,0-1.67.13-2.44.13Zm27.44-23.72V37.1h.77c0,.38.13.77.13,1.28-.26-.13-.51,0-.9-.13ZM111.45,68.13c.26-.51,2.18-3.33,2.82-2.05-.26.77-.64.51-.77,1.8-.77.13-1.41.13-2.05.26Zm4.1-3.85A10.67,10.67,0,0,0,113,63.13c0-.13.13-.38.13-.51,1,0,2.18.38,3.72.51V64c-.51.13-.9.13-1.28.26Zm-3.46-2.56c-.51-.38-.51-.38-.64-.9h1.15v.77c-.13,0-.38.13-.51.13Zm-4.49-4.36a8.67,8.67,0,0,1-.26-1.8h.38c0-.38,0-.38.26-.38v.38h.51V57H108v.38Zm3.72-1.15h-.13c.13-.13.26-.13.51-.13,0,.13,0,.13-.38.13Zm-.51-1.28c.13-.9.9-1,1.54-1.41v.9c.64.13.64.13.9.38a14.71,14.71,0,0,0-2.44.13ZM138.25,31.2V30H139c0,.26.13.77.13,1.15ZM116.2,61.08c.26-.51,2.18-3.33,2.82-2.18-.26.9-.64.64-.77,1.92a10,10,0,0,0-2.05.26Zm4.1-3.85a8.37,8.37,0,0,0-2.56-1.15c0-.26.13-.38.13-.64,1,0,2.18.51,3.72.64V57a3.79,3.79,0,0,0-1.28.26Zm-3.46-2.56c-.51-.38-.51-.38-.64-.9h1.15v.64c-.13.13-.38.13-.51.26Z" transform="translate(-23.11 -0.55)"/><path class="cls-6" d="M117.74,63.13c-5.39,19.88-10.13,40.27-19.49,58.6C94,128.91,91.19,133.66,82,133.27c-5.51-.51-8.85-9.1-2.69-11.67,4.49-2.31,8.21,4.23,5.9,7.05-1.41,1.67-2.05,2.05-1.15,2.56,1.8.26,2.18.38,4.49-.9,5.9-4,6.16-7.82,7.82-14.49,1.28-5.77,2.82-11.41,4.23-17.18a4.55,4.55,0,0,1,.26-1.28,13.86,13.86,0,0,1-9.75,3.85,8.58,8.58,0,0,1-8.21-6.8c-5.64,5.39-9.1,6.8-17.06,6.92-5.51.13-13.59-3.59-13.46-11.41.13-15.77,18.47-16.29,30.14-16.67V62.36c0-9.36-3.08-10.64-14.88-8.59-2.69.38-6.28,2.82-4.87,5.13.38.64,1.8.9,3.08,2.95a5.19,5.19,0,0,1-5,7.57c-3.08-.13-4.74-3.46-4.74-6.67,0-3.72,2.18-6.54,6-8.85,9.1-5.39,30.26-4.36,30.26,10.39V91.85c0,6.41,2.18,7.18,4.36,6.41,1.67-.51,3.72-2.82,4.74-4.49,2.05-10.39,4-20.52,7.05-30.65H98.37c.38-.77.51-1.54.9-2.31,3.08.13,6.54.13,9.75.13a71.28,71.28,0,0,1,3.08-9.75c4.1-11,10.26-20.39,20-26.16,5.64-2.95,10.77-2.31,14,2.18,3.72,8.08-7.57,11.8-10,5.51-.9-1.67-1-3.85,1.8-6.54,0-1.92-3.21-.9-4.1-.26-5.64,4.23-9.23,12.31-12.7,23.47-.9,3.85-1.8,7.69-2.82,11.54h11.41a19.74,19.74,0,0,1-.64,2.18ZM82.47,91.21V74.93C58,72.62,60.16,90.57,64.13,95.57c4.87,6.28,15.64,2.18,18.34-4.36Z" transform="translate(-23.11 -0.55)"/><path class="cls-7" d="M120.3,20.3v2.95c0,.26,0,.51-.38.51s-.51-.26-.51-.51V20.3c0-.26,0-.51.51-.51s.38.26.38.51Zm-4,.13.26,2.95c0,.26.13.51-.38.51s-.51-.26-.51-.38l-.26-3.08c-.13-.13-.13-.38.38-.51s.51.26.51.51Zm-4.62.51.64,2.82c0,.26,0,.51-.51.64s-.51-.13-.51-.38l-.51-2.95c0-.26-.13-.51.38-.51s.51.13.51.38Zm-4.49.9.77,2.82c.13.26.13.51-.26.64s-.51-.13-.64-.38l-.77-2.82c-.13-.26-.13-.38.38-.51s.51,0,.51.26ZM75.55,46.2l2.69,1.28c.26.13.38.13.26.64s-.38.26-.64.26L75.16,47.1c-.26-.13-.51-.13-.26-.64s.38-.26.64-.26ZM78,42.35l2.44,1.54c.26.13.51.26.26.64a.54.54,0,0,1-.64.26l-2.56-1.67c-.26-.13-.38-.26-.13-.64s.38-.26.64-.13Zm2.95-3.59,2.31,1.92c.13.13.38.26,0,.64s-.51.26-.64.13l-2.31-1.92c-.13-.26-.26-.38,0-.77s.51-.13.64,0ZM84,35.56l2.05,2.05c.26.26.38.38,0,.77a.42.42,0,0,1-.64,0l-2.05-2.05c-.26-.26-.38-.38,0-.77a.42.42,0,0,1,.64,0Zm3.46-2.95,1.92,2.18c.13.26.38.38,0,.64s-.51.26-.64,0L86.7,33.25a.42.42,0,0,1,0-.64c.38-.38.51-.13.77,0Zm3.59-2.82L93,32.1c.13.26.26.38-.13.77s-.51,0-.64-.13l-1.92-2.31c-.13-.26-.26-.38.13-.64s.51-.13.64,0Zm3.85-2.56,1.41,2.69c.13.13.26.38-.13.64s-.51,0-.64-.26l-1.41-2.56c-.13-.26-.26-.38.13-.64s.51,0,.64.13Zm3.85-2.05L100,27.86c.13.26.13.38-.26.64s-.51,0-.64-.26L98,25.56c-.13-.26-.26-.51.13-.64s.64,0,.64.26Zm4.23-1.8.9,2.82c.13.26.26.51-.26.64s-.51-.13-.64-.38l-.9-2.82c-.13-.13-.13-.38.26-.51s.51,0,.64.26ZM71.83,54.28l2.82,1c.26.13.51.26.26.64s-.38.38-.64.26l-2.69-1c-.26,0-.51-.13-.26-.64s.38-.38.51-.26ZM70.42,58.9l2.82.51c.26,0,.51.13.38.51s-.26.51-.51.38l-2.95-.51c-.13,0-.38-.13-.38-.51s.38-.51.64-.38Zm-1,4.1,2.95.51c.26,0,.51.13.38.51s-.26.51-.51.51L69.26,64c-.26,0-.51-.13-.38-.51s.26-.51.51-.51Zm-.9,4.49,2.95.38c.26,0,.51.13.38.51s-.26.51-.51.51l-2.95-.38c-.26-.13-.38-.13-.38-.64s.26-.38.51-.38Zm0,4.36h2.95c.26,0,.51,0,.51.51s-.26.51-.51.51l-2.95-.13c-.26,0-.51,0-.51-.38s.26-.51.51-.51Zm51.68,53.09V122c0-.26,0-.51-.51-.51s-.51.26-.51.51v2.95c0,.13,0,.38.51.38s.51-.26.51-.38Zm-4.1-.13.26-2.95c.13-.26.13-.51-.38-.51s-.51.13-.51.38l-.26,2.95c0,.26-.13.51.38.51s.51-.13.51-.38Zm-4.49-.51.51-2.95c0-.26,0-.51-.38-.51s-.51.13-.64.38l-.51,2.95a.48.48,0,0,0,.38.51c.51.13.51-.13.64-.38Zm-4.62-1,.9-2.82c0-.26.13-.38-.38-.51s-.51,0-.64.26l-.77,2.82c0,.26-.13.51.38.64s.51-.13.51-.38ZM77.73,102.88l2.56-1.67c.13-.13.38-.26.13-.64s-.51-.26-.64-.13L77.21,102c-.26.13-.38.26-.13.64s.38.38.64.26Zm2.95,3.59L83,104.55a.47.47,0,0,0,0-.77c-.26-.26-.38-.13-.64,0l-2.18,1.92c-.26.13-.38.26-.13.64s.51.26.64.13Zm3.08,3.08,2.18-2.05c.13-.13.26-.26,0-.64s-.51-.26-.77,0l-2.05,2.05c-.26.13-.38.38,0,.64s.51.26.64,0Zm3.46,3.08,1.92-2.31c.26-.13.38-.26,0-.64s-.51-.13-.64,0l-2.05,2.18c-.13.26-.26.38,0,.77s.51.13.77,0Zm3.59,2.69L92.73,113c.13-.13.26-.38-.13-.64s-.51-.13-.64.13l-1.8,2.31c-.26.13-.38.38,0,.64s.51.13.64-.13Zm3.85,2.56,1.41-2.56c.13-.26.26-.38-.13-.64s-.51,0-.64.13l-1.41,2.69c-.13.13-.26.38.13.64s.51,0,.64-.26Zm35.27,5.9-.51-2.82c-.13-.26-.13-.51-.64-.38s-.38.26-.38.51L129,124c0,.26,0,.38.51.38s.38-.38.38-.64Zm-27.19-1.92,1-2.82c0-.26.13-.51-.38-.64s-.51,0-.51.26l-1,2.82c0,.26-.13.51.26.64s.64-.13.64-.26Zm-31-31,2.69-1c.26,0,.51-.13.26-.51s-.38-.38-.51-.38l-2.82,1c-.26.13-.51.26-.26.64s.38.38.64.26Zm-1.54-4.49,2.95-.51c.13-.13.38-.13.38-.64s-.38-.38-.64-.38L70,85.44c-.26,0-.51,0-.38.51s.26.38.51.38Zm-1-4.23,2.95-.51c.26,0,.51,0,.38-.51s-.26-.38-.51-.38L69,81.21c-.26,0-.38,0-.38.51s.38.38.51.38Zm-.9-4.49,2.95-.38c.26,0,.51,0,.51-.51s-.38-.38-.64-.38l-2.95.38c-.13,0-.38,0-.38.51s.38.51.51.38Zm5.26,17.31,2.69-1.15c.26-.13.51-.26.26-.64s-.38-.38-.64-.26L73.11,94c-.26.13-.38.26-.26.64s.51.38.64.26Zm51.81,29.88v-2.95c0-.26,0-.51-.51-.51s-.51.26-.51.51l.13,2.95c0,.26,0,.51.38.51s.51-.26.51-.51Zm8.85-2.44-.9-2.82c0-.26-.13-.38-.51-.26s-.38.38-.38.51l.9,2.82c.13.26.13.51.64.38s.38-.38.26-.64Zm4.23-1-1-2.82c-.13-.13-.13-.38-.64-.26s-.38.38-.26.64l1,2.82c.13.13.26.38.64.26s.38-.38.26-.64Zm4.23-1.92-1.41-2.56c-.13-.26-.13-.51-.64-.26s-.26.51-.13.64l1.28,2.69c.13.13.26.38.64.13s.38-.38.26-.64Zm4.23-2.31-1.67-2.44c-.13-.26-.26-.51-.64-.26s-.26.51-.13.77l1.54,2.44c.13.26.26.38.77.13s.26-.38.13-.64Zm3.59-2.18-1.67-2.44c-.13-.26-.26-.38-.64-.13s-.26.51-.13.64l1.67,2.44c.13.26.38.38.77.13s.26-.51,0-.64ZM153.9,112l-1.8-2.31c-.13-.13-.38-.38-.64,0s-.26.38-.13.64l1.92,2.31c.13.13.26.38.64,0s.26-.38,0-.64Zm3.21-3.08-1.8-2.31c-.26-.13-.38-.38-.77,0s-.13.51,0,.64l1.8,2.31a.55.55,0,0,0,.77.13c.26-.38.13-.51,0-.77Z" transform="translate(-23.11 -0.55)"/></svg>