<svg id="Layer_1" data-name="Layer 1" xmlns="http://www.w3.org/2000/svg" viewBox="0 0 484.33 41.18"><defs><style>.cls-1{fill:#27348a;}.cls-2{fill:#bd1622;}</style></defs><title>traits-01</title><path class="cls-1" d="M7.83,37.91,38,32.38q15.08-2.81,30.14-5.73c20.1-3.79,40.17-7.75,60.39-11.08,10.1-1.71,20.26-3.18,30.48-4.31a307.89,307.89,0,0,1,30.82-2c20.71-.1,41.23,2.75,61.38,6.54s40.08,8.63,60,12.8c10,2.11,20,4,30,5.45l7.54,1c2.52.27,5,.43,7.56.66s5,.24,7.54.35l1.89.06c.63,0,1.26,0,1.89,0l3.79-.09c20.25-.79,40.49-4,60.57-7.64,10.06-1.79,20.08-3.81,30.08-5.91l30-6.46c-19.74,5.38-39.58,10.39-59.6,14.77-10,2.12-20.09,4.07-30.22,5.71a304.67,304.67,0,0,1-30.67,3.42l-3.87.17c-.65,0-1.29.07-1.94.07l-1.95,0c-2.59-.06-5.21,0-7.78-.21s-5.16-.34-7.73-.58l-7.69-.88c-10.21-1.36-20.34-3.15-30.4-5.15-20.1-4.05-40-8.81-60-12.53S210.11,14,189.88,14a303.4,303.4,0,0,0-30.4,1.64q-15.18,1.54-30.33,3.8C119,20.87,109,22.52,98.86,24.14L68.57,29q-15.16,2.37-30.34,4.63L23,35.88Z" transform="translate(-7.83 -9.23)"/><path class="cls-2" d="M7.83,48.27,38,42.74Q53.09,39.93,68.15,37c20.1-3.79,40.17-7.75,60.39-11.08,10.1-1.71,20.26-3.18,30.48-4.31a307.89,307.89,0,0,1,30.82-2c20.71-.1,41.23,2.75,61.38,6.54s40.08,8.63,60,12.8c10,2.11,20,4,30,5.45l7.54,1c2.52.27,5,.43,7.56.66s5,.24,7.54.35l1.89.06c.63,0,1.26,0,1.89,0l3.79-.09c20.25-.79,40.49-4,60.57-7.64,10.06-1.79,20.08-3.81,30.08-5.91l30-6.46c-19.74,5.38-39.58,10.39-59.6,14.77-10,2.12-20.09,4.07-30.22,5.71a304.67,304.67,0,0,1-30.67,3.42l-3.87.17c-.65,0-1.29.07-1.94.07l-1.95,0c-2.59-.06-5.21,0-7.78-.21s-5.16-.34-7.73-.58l-7.69-.88c-10.21-1.36-20.34-3.15-30.4-5.15-20.1-4.05-40-8.81-60-12.53s-40.2-6.67-60.43-6.73A303.4,303.4,0,0,0,159.47,26q-15.18,1.54-30.33,3.8C119,31.23,109,32.88,98.86,34.5L68.57,39.4Q53.41,41.78,38.23,44L23,46.24Z" transform="translate(-7.83 -9.23)"/></svg>